<?xml version="1.0" encoding="UTF-8"?>
<svg version="1.1" xmlns="http://www.w3.org/2000/svg" width="400" height="300">
<path d="M0 0 C1.00095703 0.00322266 2.00191406 0.00644531 3.03320312 0.00976562 C4.01482422 -0.00634766 4.99644531 -0.02246094 6.0078125 -0.0390625 C13.63314251 -0.04417674 19.50215922 0.98287922 25.22070312 6.44726562 C30.163571 11.61045513 33.04318562 17.91194649 36.22851562 24.23242188 C38.27197884 28.26499107 40.61707119 31.98400665 43.25195312 35.65820312 C44.34570312 37.32226562 44.34570312 37.32226562 45.34570312 40.32226562 C51.84180218 40.39823768 58.33778697 40.45083234 64.83422852 40.48706055 C67.04488405 40.50216087 69.25550956 40.52264272 71.46606445 40.54858398 C74.64086305 40.58491217 77.8152661 40.60197946 80.99023438 40.61523438 C81.98094437 40.63071823 82.97165436 40.64620209 83.99238586 40.66215515 C84.91311386 40.66238174 85.83384186 40.66260834 86.7824707 40.6628418 C87.99825554 40.67283455 87.99825554 40.67283455 89.23860168 40.68302917 C91.89548817 40.22813518 92.79542327 39.50754462 94.34570312 37.32226562 C94.34652847 33.74469876 94.34652847 33.74469876 93.34570312 30.32226562 C90.23510988 28.24853679 89.55639173 28.07271392 86.02954102 28.06689453 C84.72787743 28.05645615 84.72787743 28.05645615 83.3999176 28.04580688 C82.46550339 28.04680389 81.53108917 28.0478009 80.56835938 28.04882812 C78.59114015 28.02854153 76.61392664 28.00769079 74.63671875 27.98632812 C71.51826141 27.96370745 68.40002981 27.94725031 65.28149414 27.94140625 C62.27253381 27.93189701 59.26459208 27.89814056 56.25585938 27.86132812 C55.32346939 27.8663736 54.39107941 27.87141907 53.43043518 27.87661743 C46.95116284 27.77794546 46.95116284 27.77794546 43.80444336 25.40966797 C41.17894797 21.65268294 39.72626201 19.03001811 40.34570312 14.32226562 C43.57799909 12.16740165 44.45404108 12.07034424 48.1809082 12.06347656 C49.16235306 12.05717224 50.14379791 12.05086792 51.15498352 12.04437256 C52.74405769 12.05044525 52.74405769 12.05044525 54.36523438 12.05664062 C55.45656174 12.05472717 56.5478891 12.05281372 57.67228699 12.05084229 C59.98310578 12.04948039 62.29393221 12.05317713 64.60473633 12.06152344 C68.13380259 12.07219186 71.6623562 12.06164401 75.19140625 12.04882812 C77.43685008 12.05015032 79.68229359 12.05271396 81.92773438 12.05664062 C82.98104446 12.05259216 84.03435455 12.0485437 85.11958313 12.04437256 C93.15086398 12.09546924 98.67807508 13.14450099 104.73632812 18.59960938 C109.5628953 23.76591065 111.47635078 28.99620431 111.40820312 35.94726562 C111.39917969 37.13578125 111.39015625 38.32429688 111.38085938 39.54882812 C111.36925781 40.4640625 111.35765625 41.37929687 111.34570312 42.32226562 C112.37695312 42.65226562 113.40820312 42.98226562 114.47070312 43.32226562 C120.2077545 45.77767707 123.15547674 50.77950926 125.72070312 56.25976562 C126.98271304 62.44361421 127.11155288 68.53912523 124.34570312 74.32226562 C120.68276071 79.81667925 116.56981588 83.07973872 110.34570312 85.32226562 C106.59840545 85.87727989 102.91019691 85.88398287 99.12695312 85.85351562 C98.06963989 85.85734253 97.01232666 85.86116943 95.92297363 85.8651123 C93.69750002 85.86782259 91.47199408 85.86052365 89.24658203 85.84375 C85.85571733 85.82232889 82.4669713 85.84358307 79.07617188 85.86914062 C76.90559432 85.86649719 74.73501807 85.8613719 72.56445312 85.85351562 C71.55902466 85.86161255 70.55359619 85.86970947 69.5177002 85.87805176 C62.52074428 85.785633 56.92306035 84.60746728 51.65368652 79.76843262 C47.48226595 75.37669679 41.34570312 67.5078515 41.34570312 61.32226562 C40.68570313 61.32226562 40.02570313 61.32226562 39.34570312 61.32226562 C38.68570313 60.00226563 38.02570313 58.68226563 37.34570312 57.32226562 C35.36570313 57.32226562 33.38570312 57.32226562 31.34570312 57.32226562 C33.63176091 62.97327974 36.40606949 68.20905514 39.40820312 73.50976562 C40.29565448 75.08617634 41.18239844 76.66298554 42.06835938 78.24023438 C42.45773682 78.92883545 42.84711426 79.61743652 43.24829102 80.3269043 C44.00279364 81.69877303 44.71227549 83.09606389 45.38256836 84.51098633 C46.67516123 86.94184729 47.80328137 87.2915541 50.34570312 88.32226562 C51.39008041 88.83062958 52.4344577 89.33899353 53.51048279 89.86276245 C57.40012064 91.5236491 60.77637308 91.66355042 65.02172852 91.61181641 C65.75438431 91.60755142 66.4870401 91.60328644 67.24189758 91.59889221 C68.82042149 91.58864944 70.39891459 91.57201367 71.97731209 91.54956436 C74.47914671 91.51711394 76.98000602 91.50861265 79.48204041 91.5072937 C86.59077254 91.50170213 93.69870047 91.47242941 100.80688477 91.38085938 C105.1661297 91.32640775 109.523652 91.31576502 113.8831768 91.333004 C115.53901773 91.33106429 117.19492695 91.31264547 118.85038948 91.27719498 C131.70246264 91.00969099 131.70246264 91.00969099 135.76144409 94.25189209 C137.97658708 97.34335843 139.56169489 99.65764342 139.05819702 103.53804016 C138.34570312 105.32226562 138.34570312 105.32226562 136.82299805 106.55786133 C133.14439382 107.69294656 129.52032361 107.5860916 125.70898438 107.55273438 C124.84885742 107.55272934 123.98873047 107.5527243 123.10253906 107.55271912 C120.28761148 107.54920581 117.47305458 107.53027662 114.65820312 107.50976562 C112.71639095 107.50155604 110.77457776 107.49358253 108.83276367 107.48583984 C96.77261126 107.42352608 84.71445818 107.26053109 72.65820312 106.94726562 C71.97891754 106.93206879 71.29963196 106.91687195 70.59976196 106.9012146 C56.16053584 106.56162127 45.43899999 103.88069327 34.60742188 93.88085938 C30.41507153 89.13821779 27.41124292 83.67869537 24.36376953 78.15576172 C23.42976125 76.47365089 22.45785139 74.81273155 21.48242188 73.15429688 C17.68605884 66.58541095 15.33162511 61.44882708 17.28320312 53.82226562 C19.20235546 48.54459671 22.92685802 45.58654313 27.34570312 42.32226562 C25.73135095 36.31328809 22.63600235 31.30424094 19.47070312 26.00976562 C18.94089844 25.09130859 18.41109375 24.17285156 17.86523438 23.2265625 C17.08599609 21.91848633 17.08599609 21.91848633 16.29101562 20.58398438 C15.82195801 19.78951904 15.35290039 18.99505371 14.86962891 18.17651367 C13.05929281 15.97377374 12.13098647 15.66967299 9.34570312 15.32226562 C6.93188553 15.10109003 4.51455716 14.9165432 2.09570312 14.75976562 C0.83242187 14.67597656 -0.43085938 14.5921875 -1.73242188 14.50585938 C-2.69664063 14.44527344 -3.66085938 14.3846875 -4.65429688 14.32226562 C-4.94304687 13.51789063 -5.23179688 12.71351562 -5.52929688 11.88476562 C-6.38692255 9.18961883 -6.38692255 9.18961883 -8.65429688 8.32226562 C-9.40429688 5.38476562 -9.40429688 5.38476562 -9.65429688 2.32226562 C-6.69671774 -0.63531351 -4.04654715 0.03005538 0 0 Z M55.34570312 57.32226562 C56.90551502 62.3136637 59.48987618 66.779384 63.34570312 70.32226562 C66.63278835 71.44189125 69.71474123 71.37804167 73.16210938 71.27929688 C74.56323219 71.28010506 74.56323219 71.28010506 75.99266052 71.28092957 C77.96036285 71.27325226 79.9280746 71.24603068 81.89526367 71.20043945 C84.90331572 71.13487216 87.9054343 71.13882127 90.9140625 71.15234375 C92.83011705 71.13627577 94.74614322 71.11622812 96.66210938 71.09179688 C97.55805313 71.09250687 98.45399689 71.09321686 99.37709045 71.09394836 C103.83658864 70.95905313 105.79610477 70.73747456 109.45483398 67.97338867 C111.66488335 65.43229271 111.66488335 65.43229271 111.28320312 62.13476562 C110.54601755 59.22443765 110.54601755 59.22443765 108.34570312 57.32226562 C105.9567634 56.98950924 103.68638006 56.80101942 101.28320312 56.69726562 C100.15398437 56.64143311 100.15398437 56.64143311 99.00195312 56.58447266 C90.28826388 56.22028341 81.56560386 56.21534574 72.84570312 56.19726562 C72.09666718 56.19458679 71.34763123 56.19190796 70.57589722 56.18914795 C68.42619932 56.1833242 66.27665174 56.18500789 64.12695312 56.18945312 C62.24073242 56.19114502 62.24073242 56.19114502 60.31640625 56.19287109 C57.41664431 56.11684986 57.41664431 56.11684986 55.34570312 57.32226562 Z " fill="#F98C40" transform="translate(129.654296875,91.677734375)"/>
<path d="M0 0 C1.00095703 0.00322266 2.00191406 0.00644531 3.03320312 0.00976562 C4.01482422 -0.00634766 4.99644531 -0.02246094 6.0078125 -0.0390625 C13.63314251 -0.04417674 19.50215922 0.98287922 25.22070312 6.44726562 C30.16635453 11.61336273 33.04730923 17.91722926 36.22851562 24.24414062 C38.23777342 28.21192653 40.56441726 31.81918011 43.25195312 35.36523438 C44.34570312 37.32226562 44.34570312 37.32226562 45.34570312 43.32226562 C40.72570312 43.32226562 36.10570312 43.32226562 31.34570312 43.32226562 C31.01570313 46.95226562 30.68570313 50.58226562 30.34570312 54.32226562 C31.99570313 53.66226563 33.64570313 53.00226563 35.34570312 52.32226562 C37.78320312 53.13476562 37.78320312 53.13476562 40.34570312 54.32226562 C42.33813562 54.69819628 44.33757053 55.04206108 46.34570312 55.32226562 C46.84070313 57.30226563 46.84070313 57.30226563 47.34570312 59.32226562 C46.68570313 59.32226562 46.02570313 59.32226562 45.34570312 59.32226562 C45.34570312 59.98226562 45.34570312 60.64226562 45.34570312 61.32226562 C44.68570313 61.32226562 44.02570313 61.32226562 43.34570312 61.32226562 C43.88710937 62.13630859 43.88710937 62.13630859 44.43945312 62.96679688 C44.90351563 63.68222656 45.36757812 64.39765625 45.84570312 65.13476562 C46.30976563 65.84246094 46.77382812 66.55015625 47.25195312 67.27929688 C48.34570312 69.32226562 48.34570312 69.32226562 48.34570312 72.32226562 C49.00570312 72.32226562 49.66570312 72.32226562 50.34570312 72.32226562 C52.38739797 75.22775445 53.34570312 76.72368608 53.34570312 80.32226562 C47.77304862 75.40521753 42.78436469 68.73822346 41.34570312 61.32226562 C40.68570313 61.32226562 40.02570313 61.32226562 39.34570312 61.32226562 C38.68570313 60.00226563 38.02570313 58.68226563 37.34570312 57.32226562 C35.36570313 57.32226562 33.38570312 57.32226562 31.34570312 57.32226562 C33.63176091 62.97327974 36.40606949 68.20905514 39.40820312 73.50976562 C40.29565448 75.08617634 41.18239844 76.66298554 42.06835938 78.24023438 C42.45773682 78.92883545 42.84711426 79.61743652 43.24829102 80.3269043 C44.00279364 81.69877303 44.71227549 83.09606389 45.38256836 84.51098633 C46.67516123 86.94184729 47.80328137 87.2915541 50.34570312 88.32226562 C51.39008041 88.83062958 52.4344577 89.33899353 53.51048279 89.86276245 C57.40012064 91.5236491 60.77637308 91.66355042 65.02172852 91.61181641 C65.75438431 91.60755142 66.4870401 91.60328644 67.24189758 91.59889221 C68.82042149 91.58864944 70.39891459 91.57201367 71.97731209 91.54956436 C74.47914671 91.51711394 76.98000602 91.50861265 79.48204041 91.5072937 C86.59077254 91.50170213 93.69870047 91.47242941 100.80688477 91.38085938 C105.1661297 91.32640775 109.523652 91.31576502 113.8831768 91.333004 C115.53901773 91.33106429 117.19492695 91.31264547 118.85038948 91.27719498 C131.70246264 91.00969099 131.70246264 91.00969099 135.76144409 94.25189209 C137.97658708 97.34335843 139.56169489 99.65764342 139.05819702 103.53804016 C138.34570312 105.32226562 138.34570312 105.32226562 136.82299805 106.55786133 C133.14439382 107.69294656 129.52032361 107.5860916 125.70898438 107.55273438 C124.84885742 107.55272934 123.98873047 107.5527243 123.10253906 107.55271912 C120.28761148 107.54920581 117.47305458 107.53027662 114.65820312 107.50976562 C112.71639095 107.50155604 110.77457776 107.49358253 108.83276367 107.48583984 C96.77261126 107.42352608 84.71445818 107.26053109 72.65820312 106.94726562 C71.97891754 106.93206879 71.29963196 106.91687195 70.59976196 106.9012146 C56.16053584 106.56162127 45.43899999 103.88069327 34.60742188 93.88085938 C30.41507153 89.13821779 27.41124292 83.67869537 24.36376953 78.15576172 C23.42976125 76.47365089 22.45785139 74.81273155 21.48242188 73.15429688 C17.68605884 66.58541095 15.33162511 61.44882708 17.28320312 53.82226562 C19.20235546 48.54459671 22.92685802 45.58654313 27.34570312 42.32226562 C25.73135095 36.31328809 22.63600235 31.30424094 19.47070312 26.00976562 C18.94089844 25.09130859 18.41109375 24.17285156 17.86523438 23.2265625 C17.08599609 21.91848633 17.08599609 21.91848633 16.29101562 20.58398438 C15.82195801 19.78951904 15.35290039 18.99505371 14.86962891 18.17651367 C13.05929281 15.97377374 12.13098647 15.66967299 9.34570312 15.32226562 C6.93188553 15.10109003 4.51455716 14.9165432 2.09570312 14.75976562 C0.83242187 14.67597656 -0.43085938 14.5921875 -1.73242188 14.50585938 C-2.69664063 14.44527344 -3.66085938 14.3846875 -4.65429688 14.32226562 C-4.94304687 13.51789063 -5.23179688 12.71351562 -5.52929688 11.88476562 C-6.38692255 9.18961883 -6.38692255 9.18961883 -8.65429688 8.32226562 C-9.40429688 5.38476562 -9.40429688 5.38476562 -9.65429688 2.32226562 C-6.69671774 -0.63531351 -4.04654715 0.03005538 0 0 Z " fill="#FA695C" transform="translate(129.654296875,91.677734375)"/>
<path d="M0 0 C1.00095703 0.00322266 2.00191406 0.00644531 3.03320312 0.00976562 C4.01482422 -0.00634766 4.99644531 -0.02246094 6.0078125 -0.0390625 C13.63314251 -0.04417674 19.50215922 0.98287922 25.22070312 6.44726562 C30.16635453 11.61336273 33.04730923 17.91722926 36.22851562 24.24414062 C38.23777342 28.21192653 40.56441726 31.81918011 43.25195312 35.36523438 C44.34570312 37.32226562 44.34570312 37.32226562 45.34570312 43.32226562 C40.72570312 43.32226562 36.10570312 43.32226562 31.34570312 43.32226562 C31.01570313 46.95226562 30.68570313 50.58226562 30.34570312 54.32226562 C31.99570313 53.66226563 33.64570313 53.00226563 35.34570312 52.32226562 C37.78320312 53.13476562 37.78320312 53.13476562 40.34570312 54.32226562 C42.33813562 54.69819628 44.33757053 55.04206108 46.34570312 55.32226562 C46.84070313 57.30226563 46.84070313 57.30226563 47.34570312 59.32226562 C46.68570313 59.32226562 46.02570313 59.32226562 45.34570312 59.32226562 C45.34570312 59.98226562 45.34570312 60.64226562 45.34570312 61.32226562 C44.68570313 61.32226562 44.02570313 61.32226562 43.34570312 61.32226562 C43.88710937 62.13630859 43.88710937 62.13630859 44.43945312 62.96679688 C44.90351563 63.68222656 45.36757812 64.39765625 45.84570312 65.13476562 C46.30976563 65.84246094 46.77382812 66.55015625 47.25195312 67.27929688 C48.34570312 69.32226562 48.34570312 69.32226562 48.34570312 72.32226562 C49.00570312 72.32226562 49.66570312 72.32226562 50.34570312 72.32226562 C52.38739797 75.22775445 53.34570312 76.72368608 53.34570312 80.32226562 C47.77304862 75.40521753 42.78436469 68.73822346 41.34570312 61.32226562 C40.68570313 61.32226562 40.02570313 61.32226562 39.34570312 61.32226562 C38.68570313 60.00226563 38.02570313 58.68226563 37.34570312 57.32226562 C35.36570313 57.32226562 33.38570312 57.32226562 31.34570312 57.32226562 C33.83615304 63.49178927 36.99054642 69.08671276 40.38085938 74.80078125 C41.42721222 76.6088926 42.39380424 78.46269325 43.34570312 80.32226562 C43.01570313 80.98226562 42.68570313 81.64226562 42.34570312 82.32226562 C39.69701723 79.12557575 37.40577971 75.92739966 35.34570312 72.32226562 C34.91257813 72.81726563 34.47945312 73.31226563 34.03320312 73.82226562 C32.34570312 75.32226562 32.34570312 75.32226562 29.34570312 75.32226562 C29.01570313 75.98226562 28.68570313 76.64226562 28.34570312 77.32226562 C27.35570312 77.81726563 27.35570312 77.81726563 26.34570312 78.32226562 C21.06390206 73.62733135 18.26854329 68.7060129 16.40820312 61.88476562 C16.30717787 56.12632624 17.32509751 51.49004133 21.33007812 47.19335938 C23.28204927 45.48019321 25.25729164 43.8650114 27.34570312 42.32226562 C25.73135095 36.31328809 22.63600235 31.30424094 19.47070312 26.00976562 C18.94089844 25.09130859 18.41109375 24.17285156 17.86523438 23.2265625 C17.08599609 21.91848633 17.08599609 21.91848633 16.29101562 20.58398438 C15.82195801 19.78951904 15.35290039 18.99505371 14.86962891 18.17651367 C13.05929281 15.97377374 12.13098647 15.66967299 9.34570312 15.32226562 C6.93188553 15.10109003 4.51455716 14.9165432 2.09570312 14.75976562 C0.83242187 14.67597656 -0.43085938 14.5921875 -1.73242188 14.50585938 C-2.69664063 14.44527344 -3.66085938 14.3846875 -4.65429688 14.32226562 C-4.94304687 13.51789063 -5.23179688 12.71351562 -5.52929688 11.88476562 C-6.38692255 9.18961883 -6.38692255 9.18961883 -8.65429688 8.32226562 C-9.40429688 5.38476562 -9.40429688 5.38476562 -9.65429688 2.32226562 C-6.69671774 -0.63531351 -4.04654715 0.03005538 0 0 Z " fill="#FA7350" transform="translate(129.654296875,91.677734375)"/>
<path d="M0 0 C0.98144485 -0.00630432 1.96288971 -0.01260864 2.97407532 -0.019104 C4.56314949 -0.01303131 4.56314949 -0.01303131 6.18432617 -0.00683594 C7.27565353 -0.00874939 8.3669809 -0.01066284 9.49137878 -0.01263428 C11.80219757 -0.01399617 14.11302401 -0.01029943 16.42382812 -0.00195312 C19.95289439 0.0087153 23.48144799 -0.00183256 27.01049805 -0.01464844 C29.25594188 -0.01332624 31.50138539 -0.0107626 33.74682617 -0.00683594 C34.80013626 -0.0108844 35.85344635 -0.01493286 36.93867493 -0.019104 C44.96995577 0.03199268 50.49716688 1.08102443 56.55541992 6.53613281 C61.55877015 11.89166061 63.29264024 17.1958036 63.22729492 24.38378906 C63.21827148 25.66511719 63.20924805 26.94644531 63.19995117 28.26660156 C63.18834961 29.25402344 63.17674805 30.24144531 63.16479492 31.25878906 C62.11291992 31.71253906 61.06104492 32.16628906 59.97729492 32.63378906 C59.34178711 32.90964844 58.7062793 33.18550781 58.05151367 33.46972656 C56.48723311 34.12393914 54.89125819 34.70175836 53.28979492 35.25878906 C52.23791992 35.75378906 52.23791992 35.75378906 51.16479492 36.25878906 C50.83479492 37.24878906 50.50479492 38.23878906 50.16479492 39.25878906 C48.51479492 38.92878906 46.86479492 38.59878906 45.16479492 38.25878906 C45.53604492 37.68128906 45.90729492 37.10378906 46.28979492 36.50878906 C47.45646159 34.25878906 47.45646159 34.25878906 46.28979492 32.00878906 C45.91854492 31.43128906 45.54729492 30.85378906 45.16479492 30.25878906 C43.51479492 30.25878906 41.86479492 30.25878906 40.16479492 30.25878906 C40.96916992 29.61941406 41.77354492 28.98003906 42.60229492 28.32128906 C44.43984532 26.85275404 44.43984532 26.85275404 46.16479492 25.25878906 C45.98912135 21.77823033 45.98912135 21.77823033 45.16479492 18.25878906 C42.05420168 16.18506023 41.37548353 16.00923736 37.84863281 16.00341797 C36.54696922 15.99297958 36.54696922 15.99297958 35.2190094 15.98233032 C34.28459518 15.98332733 33.35018097 15.98432434 32.38745117 15.98535156 C30.41023194 15.96506497 28.43301844 15.94421423 26.45581055 15.92285156 C23.33735321 15.90023088 20.21912161 15.88377375 17.10058594 15.87792969 C14.09162561 15.86842045 11.08368388 15.834664 8.07495117 15.79785156 C7.14256119 15.80289703 6.2101712 15.8079425 5.24952698 15.81314087 C-1.22974537 15.71446889 -1.22974537 15.71446889 -4.37646484 13.34619141 C-7.00196023 9.58920638 -8.45464619 6.96654155 -7.83520508 2.25878906 C-4.60290911 0.10392508 -3.72686713 0.00686768 0 0 Z " fill="#FAAD29" transform="translate(177.835205078125,103.7412109375)"/>
<path d="M0 0 C6.03230491 -0.02474909 12.06458015 -0.04288334 18.09692383 -0.05493164 C20.14836136 -0.0599553 22.19979532 -0.06677537 24.2512207 -0.07543945 C27.2026457 -0.08759112 30.15402327 -0.09324804 33.10546875 -0.09765625 C34.02023483 -0.10281754 34.93500092 -0.10797882 35.87748718 -0.11329651 C44.43164216 -0.11404734 44.43164216 -0.11404734 48 1 C49.8125 3.0625 49.8125 3.0625 51 5 C50.34 6.32 49.68 7.64 49 9 C52.98527046 9.46386348 52.98527046 9.46386348 55 7.0625 C55.66 6.381875 56.32 5.70125 57 5 C59.25 4.25 59.25 4.25 61 4 C58.62722182 9.02470674 55.78902145 10.56030983 51 13 C51 13.66 51 14.32 51 15 C46.33625766 15.91538613 41.81874516 16.14644509 37.08203125 16.1328125 C36.34297043 16.13376923 35.60390961 16.13472595 34.842453 16.13571167 C33.29023147 16.1363886 31.73800702 16.13456845 30.18579102 16.13037109 C27.80934334 16.12499286 25.43308267 16.13034431 23.05664062 16.13671875 C21.54427042 16.13605833 20.03190033 16.13477792 18.51953125 16.1328125 C17.81012894 16.13483673 17.10072662 16.13686096 16.36982727 16.13894653 C13.30238965 16.12432111 10.93418469 15.97806156 8 15 C8 14.01 8 13.02 8 12 C6.88625 12.020625 5.7725 12.04125 4.625 12.0625 C1 12 1 12 -1 11 C-1.07442057 7.13013042 -1.04702186 3.7264085 0 0 Z " fill="#F7A237" transform="translate(175,133)"/>
<path d="M0 0 C-0.33 2.97 -0.66 5.94 -1 9 C2.3 9 5.6 9 9 9 C8.67 10.32 8.34 11.64 8 13 C8.99 13.33 9.98 13.66 11 14 C11.87890625 15.78515625 11.87890625 15.78515625 12.5625 18.0625 C12.92988281 19.27873047 12.92988281 19.27873047 13.3046875 20.51953125 C13.64886719 21.74736328 13.64886719 21.74736328 14 23 C14.20882812 23.72574219 14.41765625 24.45148438 14.6328125 25.19921875 C15.63242011 28.89495113 16.10898647 32.18547359 16 36 C16.33 36.99 16.66 37.98 17 39 C34.16 38.67 51.32 38.34 69 38 C69 37.34 69 36.68 69 36 C69.66 36 70.32 36 71 36 C70.67 35.01 70.34 34.02 70 33 C73 32 76 31 79 30 C75.79333412 36.07578799 71.32993711 39.46530392 65 42 C61.32485961 42.44650134 57.67542522 42.44428389 53.9765625 42.43359375 C52.38634781 42.44145653 52.38634781 42.44145653 50.76400757 42.44947815 C48.52659987 42.45588708 46.28915843 42.45457602 44.05175781 42.44604492 C40.64326406 42.43754554 37.23645295 42.46629685 33.828125 42.49804688 C31.648438 42.49965941 29.46874805 42.49908036 27.2890625 42.49609375 C26.27735992 42.50732773 25.26565735 42.51856171 24.22329712 42.53013611 C18.31859149 42.47249919 12.66035864 42.00957106 8 38 C7.41519165 35.98631287 7.41519165 35.98631287 7 34 C6.34 33.34 5.68 32.68 5 32 C5 31.01 5 30.02 5 29 C4.34 29 3.68 29 3 29 C2.16151196 27.54462432 1.32936066 26.08559627 0.5 24.625 C0.0359375 23.81289062 -0.428125 23.00078125 -0.90625 22.1640625 C-2 20 -2 20 -2 18 C-1.34 18 -0.68 18 0 18 C0.33 16.02 0.66 14.04 1 12 C-0.2375 12.04125 -1.475 12.0825 -2.75 12.125 C-6.14707527 12.14892307 -7.97318603 11.51340698 -11 10 C-13.23470405 10.78309467 -13.23470405 10.78309467 -15 12 C-16.36884358 7.48281619 -15.47075246 4.41225737 -14 0 C-12.2300132 -0.19532961 -10.45895721 -0.38098882 -8.6875 -0.5625 C-7.70136719 -0.66691406 -6.71523437 -0.77132812 -5.69921875 -0.87890625 C-3 -1 -3 -1 0 0 Z " fill="#FC7C4B" transform="translate(175,135)"/>
<path d="M0 0 C5.30622203 0.32158921 8.50853148 3.26802652 12 7 C15.79345091 12.49082083 17.12288876 16.48223676 17.0625 23.125 C17.05347656 24.40632813 17.04445312 25.68765625 17.03515625 27.0078125 C17.02355469 27.99523437 17.01195312 28.98265625 17 30 C15.4221875 30.680625 15.4221875 30.680625 13.8125 31.375 C13.17699219 31.65085938 12.54148438 31.92671875 11.88671875 32.2109375 C10.32243818 32.86515008 8.72646326 33.4429693 7.125 34 C6.073125 34.495 6.073125 34.495 5 35 C4.67 35.99 4.34 36.98 4 38 C2.35 37.67 0.7 37.34 -1 37 C-0.62875 36.4225 -0.2575 35.845 0.125 35.25 C1.29166667 33 1.29166667 33 0.125 30.75 C-0.431875 29.88375 -0.431875 29.88375 -1 29 C-2.65 29 -4.3 29 -6 29 C-5.195625 28.360625 -4.39125 27.72125 -3.5625 27.0625 C-1.7249496 25.59396498 -1.7249496 25.59396498 0 24 C-0.42300983 20.26341315 -0.98542905 16.62346766 -2 13 C-4.97 12.505 -4.97 12.505 -8 12 C-7.34 10.35 -6.68 8.7 -6 7 C-6.66 7 -7.32 7 -8 7 C-8 5.35 -8 3.7 -8 2 C-5.36 2 -2.72 2 0 2 C0 1.34 0 0.68 0 0 Z " fill="#F8BF22" transform="translate(224,105)"/>
<path d="M0 0 C-0.33 3.96 -0.66 7.92 -1 12 C0.65 11.34 2.3 10.68 4 10 C6.4375 10.8125 6.4375 10.8125 9 12 C10.9924325 12.37593066 12.9918674 12.71979545 15 13 C15.33 14.32 15.66 15.64 16 17 C15.34 17 14.68 17 14 17 C14 17.66 14 18.32 14 19 C13.34 19 12.68 19 12 19 C12.3609375 19.54269531 12.721875 20.08539063 13.09375 20.64453125 C13.5578125 21.35996094 14.021875 22.07539063 14.5 22.8125 C14.9640625 23.52019531 15.428125 24.22789062 15.90625 24.95703125 C17 27 17 27 17 30 C17.66 30 18.32 30 19 30 C21.04169485 32.90548882 22 34.40142046 22 38 C16.42734549 33.08295191 11.43866157 26.41595784 10 19 C9.34 19 8.68 19 8 19 C7.34 17.68 6.68 16.36 6 15 C4.02 15 2.04 15 0 15 C2.49044991 21.16952365 5.6448433 26.76444714 9.03515625 32.47851562 C10.08150909 34.28662697 11.04810112 36.14042762 12 38 C11.67 38.66 11.34 39.32 11 40 C8.3513141 36.80331012 6.06007659 33.60513403 4 30 C3.566875 30.495 3.13375 30.99 2.6875 31.5 C1 33 1 33 -2 33 C-2.33 33.66 -2.66 34.32 -3 35 C-3.99 35.495 -3.99 35.495 -5 36 C-10.28180106 31.30506572 -13.07715983 26.38374728 -14.9375 19.5625 C-15.0380657 13.83025512 -13.96905019 9.27358549 -10.15625 4.87109375 C-4.88169192 0 -4.88169192 0 0 0 Z " fill="#F96957" transform="translate(161,134)"/>
<path d="M0 0 C2.57073939 3.42765252 2.43037452 6.83971296 2 11 C0.08952612 15.31933225 -1.97121023 17.33662845 -6.25 19.125 C-9.79103514 20.10667311 -11.98907009 20.07432793 -15.375 18.625 C-18.26334466 16.85733307 -19.1928039 15.70512344 -21.125 12.75 C-22.18531503 8.20579271 -21.88852092 5.2376567 -20 1 C-18.18713152 -1.35672903 -16.88255536 -2.60437174 -14.1875 -3.8125 C-8.81043182 -4.27339156 -4.28521521 -3.30573745 0 0 Z " fill="#FB4E73" transform="translate(215,205)"/>
<path d="M0 0 C3.32555714 3.89565265 4.72371396 6.99451119 4.453125 12.0390625 C3.60419823 15.71286627 1.74701509 17.43611925 -1 20 C-3.98897737 21.76273024 -5.53364509 22.02914718 -9 21.8125 C-12.83352534 20.77425355 -15.97978784 19.67529575 -18.11328125 16.171875 C-19.6237363 12.47225823 -19.69235666 8.91636091 -19 5 C-13.40772774 -2.30102211 -8.52057401 -2.84019134 0 0 Z " fill="#F94F70" transform="translate(257,203)"/>
<path d="M0 0 C1.00095703 0.00322266 2.00191406 0.00644531 3.03320312 0.00976562 C4.01482422 -0.00634766 4.99644531 -0.02246094 6.0078125 -0.0390625 C12.79809855 -0.04361668 18.12477586 0.37867847 23.34179688 5.14648438 C24.05529297 6.06880859 24.05529297 6.06880859 24.78320312 7.00976562 C25.27691406 7.63238281 25.770625 8.255 26.27929688 8.89648438 C26.63121094 9.36699219 26.983125 9.8375 27.34570312 10.32226562 C26.35570312 10.32226562 25.36570313 10.32226562 24.34570312 10.32226562 C23.68570313 9.33226563 23.02570313 8.34226562 22.34570312 7.32226562 C20.37817484 6.25980035 18.37982734 5.25088755 16.34570312 4.32226562 C16.67570312 5.31226562 17.00570312 6.30226563 17.34570312 7.32226562 C17.01570313 7.65226562 16.68570313 7.98226562 16.34570312 8.32226562 C15.55089333 16.86647097 21.11465355 23.17390995 25.60351562 30.00585938 C27.46346615 33.54643784 28.0152466 36.36179427 28.34570312 40.32226562 C23.94596664 35.31286589 21.14898066 29.55443835 18.14453125 23.65234375 C15.7824015 19.09945414 15.7824015 19.09945414 11.98632812 15.81054688 C8.66017011 15.19550286 5.41124989 14.88668881 2.03320312 14.69726562 C0.77894531 14.6225 -0.4753125 14.54773438 -1.76757812 14.47070312 C-2.72019531 14.42171875 -3.6728125 14.37273437 -4.65429688 14.32226562 C-4.94304687 13.51789063 -5.23179688 12.71351562 -5.52929688 11.88476562 C-6.38692255 9.18961883 -6.38692255 9.18961883 -8.65429688 8.32226562 C-9.40429688 5.38476562 -9.40429688 5.38476562 -9.65429688 2.32226562 C-6.69671774 -0.63531351 -4.04654715 0.03005538 0 0 Z " fill="#FA5866" transform="translate(129.654296875,91.677734375)"/>
<path d="M0 0 C3.11572216 0.92587403 4.65267717 1.45972003 6.44140625 4.2421875 C6.81136719 5.11101562 7.18132812 5.97984375 7.5625 6.875 C9.2840785 10.65593506 10.86035402 13.20920357 14 16 C14 16.66 14 17.32 14 18 C14.5775 18.103125 15.155 18.20625 15.75 18.3125 C18 19 18 19 19.8125 20.375 C28.65078776 26.9405852 39.22865628 26.32398553 49.6875 26.625 C50.82239868 26.65968384 50.82239868 26.65968384 51.98022461 26.69506836 C63.07417106 27.02387323 74.06794444 26.90552933 85.15649414 26.33862305 C94.16723388 25.90432714 103.01675279 26.24559293 112 27 C110.68 23.7 109.36 20.4 108 17 C107.04057495 16.99857498 106.0811499 16.99714996 105.09265137 16.99568176 C96.02976824 16.97897755 86.96733215 16.93609972 77.90468597 16.86790943 C73.24596276 16.83368839 68.58756577 16.80853708 63.92871094 16.80444336 C59.42855709 16.80014989 54.92913854 16.77160079 50.42921448 16.72656822 C48.71656078 16.71362661 47.00381893 16.70927368 45.29112244 16.71384621 C28.65291363 16.74790583 28.65291363 16.74790583 22 11 C20 8.6875 20 8.6875 19 7 C19.33 6.34 19.66 5.68 20 5 C20.2475 5.61875 20.495 6.2375 20.75 6.875 C22.28228866 9.47989072 23.2207739 9.87328672 26 11 C27.04437729 11.50836395 28.08875458 12.01672791 29.16477966 12.54049683 C33.05441751 14.20138347 36.43066996 14.34128479 40.67602539 14.28955078 C41.40868118 14.2852858 42.14133698 14.28102081 42.89619446 14.27662659 C44.47471837 14.26638381 46.05321146 14.24974804 47.63160896 14.22729874 C50.13344359 14.19484831 52.63430289 14.18634702 55.13633728 14.18502808 C62.24506942 14.17943651 69.35299734 14.15016378 76.46118164 14.05859375 C80.82042657 14.00414213 85.17794888 13.9934994 89.53747368 14.01073837 C91.19331461 14.00879866 92.84922382 13.99037985 94.50468636 13.95492935 C107.35675952 13.68742536 107.35675952 13.68742536 111.41574097 16.92962646 C113.63088396 20.02109281 115.21599176 22.33537779 114.7124939 26.21577454 C114 28 114 28 112.47729492 29.2355957 C108.7986907 30.37068093 105.17462049 30.26382597 101.36328125 30.23046875 C100.5031543 30.23046371 99.64302734 30.23045868 98.75683594 30.23045349 C95.94190835 30.22694019 93.12735145 30.20801099 90.3125 30.1875 C88.37068783 30.17929041 86.42887464 30.17131691 84.48706055 30.16357422 C72.42690814 30.10126046 60.36875506 29.93826546 48.3125 29.625 C47.63321442 29.60980316 46.95392883 29.59460632 46.25405884 29.57894897 C31.68635618 29.23633403 21.15306077 26.4943788 10.21875 16.46484375 C6.92998297 12.8113015 0 4.93176365 0 0 Z " fill="#D35E5F" transform="translate(154,169)"/>
<path d="M0 0 C1.19786133 -0.04930664 1.19786133 -0.04930664 2.41992188 -0.09960938 C6.77478329 -0.13929742 8.50428465 -0.010551 12.01171875 2.8046875 C17.14896401 9.39993189 17.14896401 9.39993189 16.875 12.6875 C16.0625 14.4375 16.0625 14.4375 14.0625 15.4375 C10.58925094 15.7030943 7.10727721 15.66901412 3.625 15.6875 C2.17383789 15.7184375 2.17383789 15.7184375 0.69335938 15.75 C-0.69979492 15.75773438 -0.69979492 15.75773438 -2.12109375 15.765625 C-3.39811157 15.77964355 -3.39811157 15.77964355 -4.70092773 15.79394531 C-7.44014957 15.35739211 -8.22758694 14.57145102 -9.9375 12.4375 C-12.41905943 8.94493487 -13.30539096 6.72956125 -12.9375 2.4375 C-8.59049008 -0.00216709 -4.88902663 0.03534236 0 0 Z " fill="#FA4B74" transform="translate(127.9375,113.5625)"/>
<path d="M0 0 C1.43713374 3.86229692 2.11092254 6.8958659 2 11 C2.33 11.99 2.66 12.98 3 14 C20.16 13.67 37.32 13.34 55 13 C55 12.34 55 11.68 55 11 C55.66 11 56.32 11 57 11 C56.505 9.515 56.505 9.515 56 8 C59 7 62 6 65 5 C61.79333412 11.07578799 57.32993711 14.46530392 51 17 C47.32485961 17.44650134 43.67542522 17.44428389 39.9765625 17.43359375 C38.38634781 17.44145653 38.38634781 17.44145653 36.76400757 17.44947815 C34.52659987 17.45588708 32.28915843 17.45457602 30.05175781 17.44604492 C26.64326406 17.43754554 23.23645295 17.46629685 19.828125 17.49804688 C17.648438 17.49965941 15.46874805 17.49908036 13.2890625 17.49609375 C12.27735992 17.50732773 11.26565735 17.51856171 10.22329712 17.53013611 C4.31859149 17.47249919 -1.33964136 17.00957106 -6 13 C-6.58480835 10.98631287 -6.58480835 10.98631287 -7 9 C-7.66 8.34 -8.32 7.68 -9 7 C-9 6.01 -9 5.02 -9 4 C-9.66 4 -10.32 4 -11 4 C-11 3.01 -11 2.02 -11 1 C-10.34 1 -9.68 1 -9 1 C-9 1.66 -9 2.32 -9 3 C-7.88625 2.505 -6.7725 2.01 -5.625 1.5 C-2 0 -2 0 0 0 Z " fill="#FB7A4F" transform="translate(189,160)"/>
<path d="M0 0 C1.47118538 0.00022659 1.47118538 0.00022659 2.97209167 0.00045776 C4.028423 0.01078033 5.08475433 0.02110291 6.1730957 0.03173828 C7.25645706 0.03456818 8.33981842 0.03739807 9.45600891 0.04031372 C12.92041003 0.05151987 16.3845538 0.07662544 19.84887695 0.10205078 C22.19587843 0.11208001 24.54288396 0.12120596 26.88989258 0.12939453 C32.64714203 0.15146062 38.40424111 0.18494251 44.16137695 0.22705078 C44.16137695 0.55705078 44.16137695 0.88705078 44.16137695 1.22705078 C39.54137695 1.22705078 34.92137695 1.22705078 30.16137695 1.22705078 C30.16137695 1.88705078 30.16137695 2.54705078 30.16137695 3.22705078 C29.23276855 3.2416333 28.30416016 3.25621582 27.34741211 3.27124023 C23.90671199 3.3322425 20.46682043 3.40638128 17.02661133 3.48950195 C15.53681124 3.52278541 14.04688401 3.55080675 12.55688477 3.57348633 C10.41668443 3.60697149 8.27765276 3.65927867 6.13793945 3.71533203 C4.84968262 3.74151611 3.56142578 3.7677002 2.23413086 3.79467773 C1.22012207 3.93736084 0.20611328 4.08004395 -0.83862305 4.22705078 C-1.82862305 5.71205078 -1.82862305 5.71205078 -2.83862305 7.22705078 C-0.4789356 9.32455073 0.70754689 10.19610782 3.91137695 10.41455078 C4.65387695 10.35267578 5.39637695 10.29080078 6.16137695 10.22705078 C6.16137695 11.21705078 6.16137695 12.20705078 6.16137695 13.22705078 C18.70137695 13.55705078 31.24137695 13.88705078 44.16137695 14.22705078 C44.65637695 15.71205078 44.65637695 15.71205078 45.16137695 17.22705078 C44.17137695 16.89705078 43.18137695 16.56705078 42.16137695 16.22705078 C40.72495861 16.13294887 39.2846973 16.09177008 37.84521484 16.08520508 C36.97743912 16.07817062 36.10966339 16.07113617 35.21559143 16.06388855 C34.28117722 16.05972427 33.346763 16.05556 32.3840332 16.05126953 C30.40680894 16.02807741 28.42959536 16.00396032 26.45239258 15.97900391 C23.33391104 15.94384323 20.21582394 15.9145162 17.09716797 15.90112305 C14.08813818 15.88567018 11.08025966 15.84548523 8.0715332 15.80126953 C7.13914322 15.80317795 6.20675323 15.80508636 5.24610901 15.80705261 C-1.23164663 15.68439693 -1.23164663 15.68439693 -4.37988281 13.31225586 C-7.00688722 9.55706848 -8.45793765 6.93384173 -7.83862305 2.22705078 C-4.59577526 0.06515226 -3.73766084 -0.01921677 0 0 Z " fill="#E1A148" transform="translate(177.838623046875,103.77294921875)"/>
<path d="M0 0 C2.64 0 5.28 0 8 0 C8 0.66 8 1.32 8 2 C8.7425 2.0825 9.485 2.165 10.25 2.25 C13.54302595 3.14809799 14.85976788 4.38416074 17 7 C17 7.66 17 8.32 17 9 C18.32 9.66 19.64 10.32 21 11 C20.91291331 12.45945288 20.80473093 13.91765868 20.6875 15.375 C20.62949219 16.18710938 20.57148438 16.99921875 20.51171875 17.8359375 C20 20 20 20 17 22 C17 21.34 17 20.68 17 20 C16.195625 19.731875 15.39125 19.46375 14.5625 19.1875 C13.716875 18.795625 12.87125 18.40375 12 18 C11.67 17.01 11.34 16.02 11 15 C10.01 15.495 10.01 15.495 9 16 C9 15.34 9 14.68 9 14 C8.01 13.67 7.02 13.34 6 13 C6 12.34 6 11.68 6 11 C3.03 10.505 3.03 10.505 0 10 C0.66 8.35 1.32 6.7 2 5 C1.34 5 0.68 5 0 5 C0 3.35 0 1.7 0 0 Z " fill="#FBD113" transform="translate(216,107)"/>
<path d="M0 0 C-0.66 0 -1.32 0 -2 0 C0.49044991 6.16952365 3.6448433 11.76444714 7.03515625 17.47851562 C8.08150909 19.28662697 9.04810112 21.14042762 10 23 C9.67 23.66 9.34 24.32 9 25 C6.3513141 21.80331012 4.06007659 18.60513403 2 15 C1.566875 15.495 1.13375 15.99 0.6875 16.5 C-1 18 -1 18 -4 18 C-4.33 18.66 -4.66 19.32 -5 20 C-5.66 20.33 -6.32 20.66 -7 21 C-10.64706268 18.56862488 -10.82666647 17.10666735 -12 13 C-12.33 12.01 -12.66 11.02 -13 10 C-10.31707317 2.48780488 -10.31707317 2.48780488 -7 0 C-3.86650268 -1.04449911 -3.01031744 -0.93423645 0 0 Z " fill="#FA404D" transform="translate(163,149)"/>
<path d="M0 0 C1.00095703 0.00322266 2.00191406 0.00644531 3.03320312 0.00976562 C4.01482422 -0.00634766 4.99644531 -0.02246094 6.0078125 -0.0390625 C12.79809855 -0.04361668 18.12477586 0.37867847 23.34179688 5.14648438 C24.05529297 6.06880859 24.05529297 6.06880859 24.78320312 7.00976562 C25.27691406 7.63238281 25.770625 8.255 26.27929688 8.89648438 C26.63121094 9.36699219 26.983125 9.8375 27.34570312 10.32226562 C26.35570312 10.32226562 25.36570313 10.32226562 24.34570312 10.32226562 C23.68570313 9.33226563 23.02570313 8.34226562 22.34570312 7.32226562 C16.42936582 2.92208243 10.46385191 2.81699408 3.34570312 3.07226562 C2.38019531 3.0903125 1.4146875 3.10835938 0.41992188 3.12695312 C-1.93921721 3.17366875 -4.29620763 3.23914426 -6.65429688 3.32226562 C-6.34492187 4.08539063 -6.03554687 4.84851563 -5.71679688 5.63476562 C-4.97536094 7.51016239 -4.2920147 9.40911214 -3.65429688 11.32226562 C-2.61789063 11.35964844 -1.58148438 11.39703125 -0.51367188 11.43554688 C0.85615497 11.5012235 2.22594504 11.56767027 3.59570312 11.63476562 C4.61857422 11.66860352 4.61857422 11.66860352 5.66210938 11.703125 C9.84204019 11.92632519 12.26226754 12.46641695 15.34570312 15.32226562 C16.00570312 15.65226562 16.66570312 15.98226562 17.34570312 16.32226562 C18.1702407 17.64441886 18.93219001 19.00605016 19.65820312 20.38476562 C21.33553902 23.52541533 23.10405983 26.4973244 25.09570312 29.44726562 C27.44106887 33.108683 28.0758742 36.00500279 28.34570312 40.32226562 C23.94596664 35.31286589 21.14898066 29.55443835 18.14453125 23.65234375 C15.7824015 19.09945414 15.7824015 19.09945414 11.98632812 15.81054688 C8.66017011 15.19550286 5.41124989 14.88668881 2.03320312 14.69726562 C0.77894531 14.6225 -0.4753125 14.54773438 -1.76757812 14.47070312 C-2.72019531 14.42171875 -3.6728125 14.37273437 -4.65429688 14.32226562 C-4.94304687 13.51789063 -5.23179688 12.71351562 -5.52929688 11.88476562 C-6.38692255 9.18961883 -6.38692255 9.18961883 -8.65429688 8.32226562 C-9.40429688 5.38476562 -9.40429688 5.38476562 -9.65429688 2.32226562 C-6.69671774 -0.63531351 -4.04654715 0.03005538 0 0 Z " fill="#CC4864" transform="translate(129.654296875,91.677734375)"/>
<path d="M0 0 C3.25694723 3.02430814 5.72350913 6.17874747 8 10 C8 10.99 8 11.98 8 13 C7.01 13.66 6.02 14.32 5 15 C4.34 14.67 3.68 14.34 3 14 C3.10613836 16.45224694 3.10613836 16.45224694 4 19 C6.47130918 20.15521502 6.47130918 20.15521502 9 21 C9.33 21.99 9.66 22.98 10 24 C10.66 24.33 11.32 24.66 12 25 C12 25.99 12 26.98 12 28 C10.66666667 27.33333333 9.33333333 26.66666667 8 26 C7.35417969 25.72027344 6.70835937 25.44054687 6.04296875 25.15234375 C0.10654229 21.80388141 -4.4394464 13.140233 -7 7 C-6.67 6.34 -6.34 5.68 -6 5 C-5.360625 4.87625 -4.72125 4.7525 -4.0625 4.625 C-1.80148727 4.19060573 -1.80148727 4.19060573 -0.75 1.9375 C-0.5025 1.298125 -0.255 0.65875 0 0 Z " fill="#FA4E5B" transform="translate(164,163)"/>
<path d="M0 0 C1 4 2 8 3 12 C-1.455 13.485 -1.455 13.485 -6 15 C-6 14.34 -6 13.68 -6 13 C-6.598125 12.938125 -7.19625 12.87625 -7.8125 12.8125 C-10.90339529 11.66445318 -11.5880344 9.89452948 -13 7 C-13 6.34 -13 5.68 -13 5 C-12.34 5 -11.68 5 -11 5 C-10.67 3.02 -10.34 1.04 -10 -1 C-6.06329512 -2.31223496 -3.87511856 -1.24296256 0 0 Z " fill="#F57441" transform="translate(186,148)"/>
<path d="M0 0 C0.66 0.33 1.32 0.66 2 1 C1.18587198 2.0978393 0.34720236 3.17747787 -0.5 4.25 C-0.9640625 4.85328125 -1.428125 5.4565625 -1.90625 6.078125 C-8.32266118 11.96781586 -14.85770735 12.56303866 -23.28125 12.390625 C-24.33534058 12.38496521 -25.38943115 12.37930542 -26.47546387 12.37347412 C-29.81745254 12.35121734 -33.15833947 12.30103977 -36.5 12.25 C-38.7760261 12.22992123 -41.05206913 12.21167288 -43.328125 12.1953125 C-48.88578782 12.1513878 -54.44281517 12.08458337 -60 12 C-60 11.34 -60 10.68 -60 10 C-59.40753479 9.98969254 -58.81506958 9.97938507 -58.20465088 9.96876526 C-52.04029494 9.86061542 -45.87608265 9.74602421 -39.71191406 9.62768555 C-37.41116338 9.58436394 -35.11038112 9.54268687 -32.80957031 9.50268555 C-29.50315839 9.44491605 -26.196905 9.38124051 -22.890625 9.31640625 C-21.86132874 9.29969376 -20.83203247 9.28298126 -19.77154541 9.26576233 C-18.81085144 9.24581711 -17.85015747 9.22587189 -16.86035156 9.20532227 C-16.01651917 9.18977798 -15.17268677 9.1742337 -14.30328369 9.15821838 C-12.08624356 9.00592429 -10.13149621 8.61217912 -8 8 C-8 7.34 -8 6.68 -8 6 C-7.34 6 -6.68 6 -6 6 C-6.495 4.515 -6.495 4.515 -7 3 C-6.01 2.67 -5.02 2.34 -4 2 C-3.319375 1.62875 -2.63875 1.2575 -1.9375 0.875 C-0.9784375 0.441875 -0.9784375 0.441875 0 0 Z " fill="#D68453" transform="translate(252,165)"/>
<path d="M0 0 C1.65 0 3.3 0 5 0 C5.33 1.65 5.66 3.3 6 5 C6.99 4.67 7.98 4.34 9 4 C9.3125 6.75 9.3125 6.75 9 10 C6.625 12.1875 6.625 12.1875 4 14 C3.01 15.485 3.01 15.485 2 17 C-0.625 17.6875 -0.625 17.6875 -3 18 C-3.33 17.01 -3.66 16.02 -4 15 C-3.34 15 -2.68 15 -2 15 C-2.33 12.03 -2.66 9.06 -3 6 C-2.01 6 -1.02 6 0 6 C1.33333333 3 1.33333333 3 0 0 Z " fill="#F7A12D" transform="translate(244,142)"/>
<path d="M0 0 C1.485 0.99 1.485 0.99 3 2 C3 2.66 3 3.32 3 4 C4.32258472 4.68774405 5.65986503 5.34711373 7 6 C8.04695541 6.5135202 9.09391083 7.02704041 10.17259216 7.55612183 C14.05703663 9.20369138 17.44158543 9.34115178 21.67602539 9.28955078 C22.40868118 9.2852858 23.14133698 9.28102081 23.89619446 9.27662659 C25.47471837 9.26638381 27.05321146 9.24974804 28.63160896 9.22729874 C31.13344359 9.19484831 33.63430289 9.18634702 36.13633728 9.18502808 C43.24506942 9.17943651 50.35299734 9.15016378 57.46118164 9.05859375 C61.82042657 9.00414213 66.17794888 8.9934994 70.53747368 9.01073837 C72.19331461 9.00879866 73.84922382 8.99037985 75.50468636 8.95492935 C88.35675952 8.68742536 88.35675952 8.68742536 92.41574097 11.92962646 C94.11981752 14.30784554 95.2480331 16.17355145 96 19 C95.61732483 21.29299927 95.61732483 21.29299927 95 23 C94.67 23 94.34 23 94 23 C93.896875 22.236875 93.79375 21.47375 93.6875 20.6875 C92.93772808 17.75657342 92.16526733 16.98482838 90 15 C89.505 13.515 89.505 13.515 89 12 C88.04057495 11.99857498 87.0811499 11.99714996 86.09265137 11.99568176 C77.02976824 11.97897755 67.96733215 11.93609972 58.90468597 11.86790943 C54.24596276 11.83368839 49.58756577 11.80853708 44.92871094 11.80444336 C40.42855709 11.80014989 35.92913854 11.77160079 31.42921448 11.72656822 C29.71656078 11.71362661 28.00381893 11.70927368 26.29112244 11.71384621 C9.67291443 11.74786489 9.67291443 11.74786489 3 6 C0 2.71875 0 2.71875 0 0 Z " fill="#C87466" transform="translate(173,174)"/>
<path d="M0 0 C3.32555714 3.89565265 4.72371396 6.99451119 4.453125 12.0390625 C3.60419823 15.71286627 1.74701509 17.43611925 -1 20 C-3.98897737 21.76273024 -5.53364509 22.02914718 -9 21.8125 C-12.83352534 20.77425355 -15.97978784 19.67529575 -18.11328125 16.171875 C-19.6237363 12.47225823 -19.69235666 8.91636091 -19 5 C-13.40772774 -2.30102211 -8.52057401 -2.84019134 0 0 Z M-15 3 C-17.38125912 5.38125912 -17.34521641 6.10707538 -17.4375 9.375 C-17.33897155 12.77970528 -17.21378659 13.72414634 -15.0625 16.5 C-11.10736605 18.43720846 -7.39642437 19.04318688 -3 19 C-2.34 18.67 -1.68 18.34 -1 18 C-1 17.34 -1 16.68 -1 16 C-0.34 16 0.32 16 1 16 C2.58649976 12.52953178 3.66740214 9.81372653 3 6 C0.4349052 2.47299465 -1.74511238 0.74138193 -6 0 C-10.21076265 0 -11.76092524 0.42779358 -15 3 Z " fill="#BC5465" transform="translate(257,203)"/>
<path d="M0 0 C-1.423125 0.6496875 -1.423125 0.6496875 -2.875 1.3125 C-6.20041937 2.79302201 -6.20041937 2.79302201 -8 6 C-8.66992163 10.22985401 -8.68330476 13.8326877 -6.5 17.5625 C-3.00057583 19.5746689 0.12445927 19.88254888 4 19 C7.1264113 17.0405988 7.1264113 17.0405988 9 14 C9.61508797 9.7822539 8.79840245 6.8216052 7 3 C6.34 3 5.68 3 5 3 C5 2.34 5 1.68 5 1 C9.56589147 2.44186047 9.56589147 2.44186047 11.3125 4.6875 C12.69555211 9.33958438 12.52605742 12.81065278 10.5625 17.25 C7.14798187 20.91436092 4.01070852 22.54000053 -1 23 C-4.22686706 22.3300622 -6.49997016 21.13787598 -9 19 C-11.55999067 15.08472015 -12.35609399 12.33805019 -11.4375 7.8125 C-10.34162163 4.34333903 -8.98530608 2.195078 -6 0 C-3.33960928 -1.01720822 -2.57437055 -1.28718528 0 0 Z " fill="#BB4064" transform="translate(205,202)"/>
<path d="M0 0 C1.32 2.97 2.64 5.94 4 9 C1.69 11.31 -0.62 13.62 -3 16 C-2.34 17.65 -1.68 19.3 -1 21 C-2.875 20.375 -2.875 20.375 -5 19 C-6.1875 16.0625 -6.1875 16.0625 -7 13 C-7.33 12.01 -7.66 11.02 -8 10 C-4.42857143 0 -4.42857143 0 0 0 Z " fill="#F22F41" transform="translate(158,149)"/>
<path d="M0 0 C0.99 0.33 1.98 0.66 3 1 C2.6596875 1.8353125 2.6596875 1.8353125 2.3125 2.6875 C1.87566315 5.92009266 3.25074655 7.34113475 5 10 C5 10.66 5 11.32 5 12 C14.9 11.505 14.9 11.505 25 11 C24.07981766 7.31927063 22.92474788 5.18001824 21 2 C21 1.34 21 0.68 21 0 C24.21079428 1.03204102 25.59940291 2.58748662 27.3125 5.375 C29 9 29 9 28.875 11.375 C28 13 28 13 26 14 C22.52675094 14.2655943 19.04477721 14.23151412 15.5625 14.25 C14.11133789 14.2809375 14.11133789 14.2809375 12.63085938 14.3125 C11.23770508 14.32023438 11.23770508 14.32023438 9.81640625 14.328125 C8.53938843 14.34214355 8.53938843 14.34214355 7.23657227 14.35644531 C4.49735043 13.91989211 3.70991306 13.13395102 2 11 C-0.46030653 7.53734637 -1.4743348 5.26901321 -1 1 C-0.67 0.67 -0.34 0.34 0 0 Z " fill="#C45664" transform="translate(116,115)"/>
<path d="M0 0 C2.49378441 0.36252388 3.66984489 0.56862086 5.23266602 2.6105957 C5.73817993 3.63286255 5.73817993 3.63286255 6.25390625 4.67578125 C6.63353516 5.42150391 7.01316406 6.16722656 7.40429688 6.93554688 C7.78650391 7.71994141 8.16871094 8.50433594 8.5625 9.3125 C9.33151877 10.85182139 10.10356765 12.38963339 10.87890625 13.92578125 C11.24000488 14.64330566 11.60110352 15.36083008 11.97314453 16.10009766 C13.12502643 18.23132565 14.5208651 20.0861034 16 22 C16 22.66 16 23.32 16 24 C9.25 23.125 9.25 23.125 7 22 C7 21.34 7 20.68 7 20 C6.34 20 5.68 20 5 20 C5 15.71 5 11.42 5 7 C4.01 6.67 3.02 6.34 2 6 C0.8125 2.9375 0.8125 2.9375 0 0 Z " fill="#F67947" transform="translate(155,102)"/>
<path d="M0 0 C2.5625 -0.5625 2.5625 -0.5625 5 0 C6.8125 1.5 6.8125 1.5 8 3 C7.34 3.66 6.68 4.32 6 5 C5.01 5 4.02 5 3 5 C3.33 6.32 3.66 7.64 4 9 C2.35 9 0.7 9 -1 9 C-1 9.66 -1 10.32 -1 11 C-3.31 11.33 -5.62 11.66 -8 12 C-8 12.66 -8 13.32 -8 14 C-8.99 14 -9.98 14 -11 14 C-11 13.34 -11 12.68 -11 12 C-11.99 11.67 -12.98 11.34 -14 11 C-12.98679688 10.56300781 -12.98679688 10.56300781 -11.953125 10.1171875 C-5.89733281 7.50958968 -5.89733281 7.50958968 -1.6875 2.6875 C-0.8521875 1.3571875 -0.8521875 1.3571875 0 0 Z " fill="#F9891F" transform="translate(237,135)"/>
<path d="M0 0 C5.30622203 0.32158921 8.50853148 3.26802652 12 7 C14.98040453 11.31397892 17.14477656 15.23647199 17.1875 20.5 C17.20167969 21.2940625 17.21585938 22.088125 17.23046875 22.90625 C17 25 17 25 15 27 C14.91363281 26.09636719 14.82726562 25.19273437 14.73828125 24.26171875 C14.52751953 22.49248047 14.52751953 22.49248047 14.3125 20.6875 C14.18488281 19.51574219 14.05726563 18.34398437 13.92578125 17.13671875 C13.30510758 13.82000654 13.30510758 13.82000654 10.48046875 12.26953125 C9.66191406 11.85058594 8.84335938 11.43164062 8 11 C7.67 10.01 7.34 9.02 7 8 C4.68143083 6.45428722 2.49361571 5.20381448 0 4 C0 2.68 0 1.36 0 0 Z " fill="#F6D722" transform="translate(224,105)"/>
<path d="M0 0 C1.32 0 2.64 0 4 0 C4.33 1.32 4.66 2.64 5 4 C4.01 4.495 4.01 4.495 3 5 C3.33 5.99 3.66 6.98 4 8 C3.34 8 2.68 8 2 8 C2 8.66 2 9.32 2 10 C1.01 10 0.02 10 -1 10 C-0.67 12.97 -0.34 15.94 0 19 C-0.66 17.68 -1.32 16.36 -2 15 C-3.62078662 11.82990528 -3.62078662 11.82990528 -6.1640625 11.48828125 C-6.97617188 11.43027344 -7.78828125 11.37226563 -8.625 11.3125 C-9.44226563 11.24675781 -10.25953125 11.18101562 -11.1015625 11.11328125 C-11.72804687 11.07589844 -12.35453125 11.03851563 -13 11 C-13 10.34 -13 9.68 -13 9 C-9.535 8.505 -9.535 8.505 -6 8 C-6 7.34 -6 6.68 -6 6 C-4.35 6 -2.7 6 -1 6 C-1.20625 5.38125 -1.4125 4.7625 -1.625 4.125 C-1.74875 3.42375 -1.8725 2.7225 -2 2 C-1.34 1.34 -0.68 0.68 0 0 Z " fill="#FC9325" transform="translate(242,138)"/>
<path d="M0 0 C2.71674362 0.07990422 4.48635633 0.55826644 6.5625 2.34375 C12.20817799 8.55399579 14.38335948 14.57101062 14.203125 22.921875 C13.99708231 25.02985017 13.56904702 26.96244454 13 29 C12.01 29 11.02 29 10 29 C10 23.39 10 17.78 10 12 C9.34 12 8.68 12 8 12 C7.9175 11.21625 7.835 10.4325 7.75 9.625 C7.27193661 6.85250896 7.27193661 6.85250896 4.9375 5.6875 C4.298125 5.460625 3.65875 5.23375 3 5 C3 4.34 3 3.68 3 3 C1.54166642 1.37485532 1.54166642 1.37485532 0 0 Z " fill="#DCA24D" transform="translate(242,135)"/>
<path d="M0 0 C4.19162145 0.95264124 5.7207791 1.63260408 8.375 5.125 C8.91125 6.07375 9.4475 7.0225 10 8 C7 10 7 10 5 10 C5 11.65 5 13.3 5 15 C3.125 14.75 3.125 14.75 1 14 C-1.35852861 10.81598637 -1.24103007 7.85648116 -1 4 C-0.5 1.625 -0.5 1.625 0 0 Z " fill="#FC6958" transform="translate(146,96)"/>
<path d="M0 0 C0.33 1.32 0.66 2.64 1 4 C0.34 4 -0.32 4 -1 4 C-1 4.66 -1 5.32 -1 6 C-1.66 6 -2.32 6 -3 6 C-2.6390625 6.54269531 -2.278125 7.08539063 -1.90625 7.64453125 C-1.21015625 8.71767578 -1.21015625 8.71767578 -0.5 9.8125 C0.19609375 10.87404297 0.19609375 10.87404297 0.90625 11.95703125 C2 14 2 14 2 17 C2.66 17 3.32 17 4 17 C6.04169485 19.90548882 7 21.40142046 7 25 C1.42734549 20.08295191 -3.56133843 13.41595784 -5 6 C-5.66 6 -6.32 6 -7 6 C-7.33 4.02 -7.66 2.04 -8 0 C-5.13822943 -1.43088528 -3.06624227 -0.59991697 0 0 Z " fill="#F65F3B" transform="translate(176,147)"/>
<path d="M0 0 C24.75 0 49.5 0 75 0 C75 0.99 75 1.98 75 3 C74.01 2.67 73.02 2.34 72 2 C71.01 2 70.02 2 69 2 C66.77511658 1.97165855 64.55026718 1.9406232 62.32543945 1.90820312 C61.652005 1.89844955 60.97857056 1.88869598 60.284729 1.87864685 C58.06091004 1.84638732 55.83709569 1.81381993 53.61328125 1.78125 C52.07057217 1.7588108 50.52786282 1.73639081 48.9851532 1.71398926 C44.92617516 1.65499754 40.86720098 1.59574473 36.80822754 1.53643799 C32.66577377 1.47595756 28.52331643 1.41572344 24.38085938 1.35546875 C16.25390272 1.23722057 8.12695012 1.11869663 0 1 C0 0.67 0 0.34 0 0 Z " fill="#DF6B53" transform="translate(187,185)"/>
<path d="M0 0 C3.11572216 0.92587403 4.65267717 1.45972003 6.44140625 4.2421875 C6.81136719 5.11101562 7.18132812 5.97984375 7.5625 6.875 C9.2840785 10.65593506 10.86035402 13.20920357 14 16 C14 16.66 14 17.32 14 18 C14.5775 18.103125 15.155 18.20625 15.75 18.3125 C18 19 18 19 19.8125 20.375 C22.70173697 22.52129032 25.66465606 23.65303418 29 25 C28.67 25.66 28.34 26.32 28 27 C17.5557519 24.32198767 9.6625991 17.13404318 4.234375 8.04296875 C2.77344202 5.38393418 1.36071545 2.71146229 0 0 Z " fill="#C04556" transform="translate(154,169)"/>
<path d="M0 0 C2.33524782 2.25740623 4.18705073 4.2805761 6 7 C7.90156389 7.45623519 7.90156389 7.45623519 10.11083984 7.38818359 C11.3825856 7.40236832 11.3825856 7.40236832 12.68002319 7.4168396 C13.59772491 7.41076691 14.51542664 7.40469421 15.4609375 7.3984375 C16.87410751 7.40274277 16.87410751 7.40274277 18.31582642 7.40713501 C20.3114685 7.40917898 22.30713047 7.40362591 24.30273438 7.39111328 C27.35592643 7.37510004 30.40778747 7.39093235 33.4609375 7.41015625 C35.39844042 7.40817318 37.33594252 7.40432818 39.2734375 7.3984375 C40.18709076 7.40451019 41.10074402 7.41058289 42.04208374 7.4168396 C47.06165086 7.39757327 47.06165086 7.39757327 51.60791016 5.47509766 C52.29699463 4.74492432 52.29699463 4.74492432 53 4 C53.66 4.33 54.32 4.66 55 5 C55 5.99 55 6.98 55 8 C52.03915546 8.84307311 49.33732236 9.15617408 46.26318359 9.23706055 C45.32896576 9.26346115 44.39474792 9.28986176 43.43222046 9.31706238 C41.93049789 9.35154228 41.93049789 9.35154228 40.3984375 9.38671875 C39.36562653 9.41224319 38.33281555 9.43776764 37.26870728 9.46406555 C35.08837497 9.51601453 32.9079815 9.56544844 30.72753906 9.61254883 C27.38050403 9.68737695 24.03412426 9.77795396 20.6875 9.86914062 C18.57033444 9.91763427 16.45314721 9.96519246 14.3359375 10.01171875 C12.82814224 10.05530769 12.82814224 10.05530769 11.28988647 10.09977722 C10.36197296 10.11672134 9.43405945 10.13366547 8.47802734 10.15112305 C7.25036148 10.17990791 7.25036148 10.17990791 5.99789429 10.20927429 C4 10 4 10 2 8 C1.1436973 5.36766208 0.61070073 2.70453182 0 0 Z " fill="#CA8254" transform="translate(187,154)"/>
<path d="M0 0 C0.66 0.33 1.32 0.66 2 1 C2 2.98 2 4.96 2 7 C-0.83982882 7.94660961 -2.61855329 8.12867774 -5.5625 8.1328125 C-6.44164062 8.13410156 -7.32078125 8.13539063 -8.2265625 8.13671875 C-9.14179688 8.13285156 -10.05703125 8.12898437 -11 8.125 C-12.37285156 8.13080078 -12.37285156 8.13080078 -13.7734375 8.13671875 C-14.65257812 8.13542969 -15.53171875 8.13414062 -16.4375 8.1328125 C-17.24058594 8.13168457 -18.04367188 8.13055664 -18.87109375 8.12939453 C-21 8 -21 8 -24 7 C-25.47965926 6.85426942 -26.96403843 6.75336732 -28.44921875 6.68359375 C-29.29677734 6.64169922 -30.14433594 6.59980469 -31.01757812 6.55664062 C-31.89865234 6.51732422 -32.77972656 6.47800781 -33.6875 6.4375 C-35.02651367 6.37272461 -35.02651367 6.37272461 -36.39257812 6.30664062 C-38.59490108 6.20064647 -40.79733473 6.09857949 -43 6 C-43 5.67 -43 5.34 -43 5 C-28.25331219 4.24433078 -13.72681736 3.76325177 1 5 C0.505 2.525 0.505 2.525 0 0 Z " fill="#EA5957" transform="translate(265,191)"/>
<path d="M0 0 C0 0.66 0 1.32 0 2 C16.17 2 32.34 2 49 2 C49 2.33 49 2.66 49 3 C32.83 3 16.66 3 0 3 C-0.33 3.66 -0.66 4.32 -1 5 C-3.64 3.68 -6.28 2.36 -9 1 C-9 0.67 -9 0.34 -9 0 C-3.375 -1.125 -3.375 -1.125 0 0 Z " fill="#E9733D" transform="translate(192,172)"/>
<path d="M0 0 C0.99 0.33 1.98 0.66 3 1 C2.2575 1.5775 1.515 2.155 0.75 2.75 C-4.58856144 6.9478749 -4.58856144 6.9478749 -7 13 C-7.44477174 17.62733677 -7.41892312 21.61358315 -5.4375 25.875 C-4 29 -4 29 -5 32 C-11.7733252 20.97772542 -11.7733252 20.97772542 -10.66015625 13.8125 C-9.17939574 8.08302141 -6.3883911 4.91056059 -1.9375 1.1171875 C-1.298125 0.74851563 -0.65875 0.37984375 0 0 Z " fill="#C55E57" transform="translate(157,134)"/>
<path d="M0 0 C1.299375 0.7115625 1.299375 0.7115625 2.625 1.4375 C8.53713528 4.17459967 14.49673588 4.18271017 20.8984375 4.31640625 C21.73339752 4.33718735 22.56835754 4.35796844 23.42861938 4.37937927 C26.0773349 4.44439469 28.72614359 4.50353491 31.375 4.5625 C33.17839478 4.60573096 34.98178038 4.64934666 36.78515625 4.69335938 C41.19001039 4.80002639 45.5949576 4.90142695 50 5 C50.495 6.485 50.495 6.485 51 8 C50.01 7.67 49.02 7.34 48 7 C46.56358165 6.90589809 45.12332035 6.86471929 43.68383789 6.8581543 C42.81606216 6.85111984 41.94828644 6.84408539 41.05421448 6.83683777 C40.11980026 6.83267349 39.18538605 6.82850922 38.22265625 6.82421875 C36.24543199 6.80102663 34.2682184 6.77690954 32.29101562 6.75195312 C29.17253408 6.71679245 26.05444698 6.68746542 22.93579102 6.67407227 C19.92676122 6.6586194 16.91888271 6.61843445 13.91015625 6.57421875 C12.97776627 6.57612717 12.04537628 6.57803558 11.08473206 6.58000183 C4.62744671 6.45773375 4.62744671 6.45773375 1.38061523 4.08911133 C0 2 0 2 0 0 Z " fill="#D7A255" transform="translate(172,113)"/>
<path d="M0 0 C0.59167969 0.0721875 1.18335938 0.144375 1.79296875 0.21875 C5.88261722 0.69910023 9.8738531 1.13310151 14 1 C14.66 2.32 15.32 3.64 16 5 C12.32995329 7.4466978 9.26442613 7.83795144 5 7 C2 4.625 2 4.625 0 2 C0 1.34 0 0.68 0 0 Z " fill="#F94278" transform="translate(196,215)"/>
<path d="M0 0 C0 0.33 0 0.66 0 1 C-3.27081471 1.02902429 -6.5415963 1.04680684 -9.8125 1.0625 C-10.74126953 1.07087891 -11.67003906 1.07925781 -12.62695312 1.08789062 C-13.51962891 1.09111328 -14.41230469 1.09433594 -15.33203125 1.09765625 C-16.56530151 1.10551147 -16.56530151 1.10551147 -17.82348633 1.11352539 C-20 1 -20 1 -23 0 C-22.67 -0.99 -22.34 -1.98 -22 -3 C-14.32190214 -5.22912519 -7.121044 -2.97789113 0 0 Z " fill="#D99444" transform="translate(206,148)"/>
<path d="M0 0 C5.72890742 -0.22304079 11.45527398 -0.38603876 17.1875 -0.49438477 C19.135539 -0.53955622 21.08327431 -0.6009115 23.03027344 -0.67895508 C39.1571971 -1.30904173 39.1571971 -1.30904173 43.67871094 1.90283203 C45.39460033 4.32383387 46.40300034 6.09591484 47 9 C46.60205078 11.29467773 46.60205078 11.29467773 46 13 C45.67 13 45.34 13 45 13 C44.8453125 11.8553125 44.8453125 11.8553125 44.6875 10.6875 C43.93772808 7.75657342 43.16526733 6.98482838 41 5 C40.505 3.515 40.505 3.515 40 2 C20.2 1.505 20.2 1.505 0 1 C0 0.67 0 0.34 0 0 Z " fill="#CA7E67" transform="translate(222,184)"/>
<path d="M0 0 C0.99 0 1.98 0 3 0 C6 5.625 6 5.625 6 9 C3.72942623 9.05398987 1.45848712 9.09278742 -0.8125 9.125 C-2.70935547 9.15980469 -2.70935547 9.15980469 -4.64453125 9.1953125 C-8 9 -8 9 -11 7 C-10.34 6.34 -9.68 5.68 -9 5 C-6.5625 5.375 -6.5625 5.375 -4 6 C-3.01 6 -2.02 6 -1 6 C-0.34 5.01 0.32 4.02 1 3 C0.67 2.01 0.34 1.02 0 0 Z " fill="#EB6230" transform="translate(169,126)"/>
<path d="M0 0 C2.9375 0.8125 2.9375 0.8125 6 2 C6.33 2.99 6.66 3.98 7 5 C6.34 5 5.68 5 5 5 C4.67 5.99 4.34 6.98 4 8 C1 8 -2 8 -5 8 C-5.33 6.68 -5.66 5.36 -6 4 C-4.68 4 -3.36 4 -2 4 C-1.67 3.01 -1.34 2.02 -1 1 C-0.67 0.67 -0.34 0.34 0 0 Z " fill="#F86243" transform="translate(164,125)"/>
<path d="M0 0 C4.75 0.875 4.75 0.875 7 2 C7.82453758 3.32215323 8.58648688 4.68378453 9.3125 6.0625 C10.98983589 9.2031497 12.75835671 12.17505877 14.75 15.125 C17.09536575 18.78641738 17.73017107 21.68273717 18 26 C13.61951028 20.99082888 10.78246397 15.27248435 7.7109375 9.41796875 C7.08058594 8.24814453 7.08058594 8.24814453 6.4375 7.0546875 C6.06496094 6.34812012 5.69242188 5.64155273 5.30859375 4.91357422 C3.81365607 2.72750677 2.18341297 1.47311134 0 0 Z " fill="#D06652" transform="translate(140,106)"/>
<path d="M0 0 C0.33 0 0.66 0 1 0 C1.66964286 7.76785714 1.66964286 7.76785714 -1.1875 11.375 C-3.906579 13.91280707 -5.40349222 15.21052268 -9 16 C-12.80924818 15.84452048 -14.47588474 15.45515272 -17.375 12.9375 C-17.91125 12.298125 -18.4475 11.65875 -19 11 C-18.67 10.34 -18.34 9.68 -18 9 C-15 10.5 -15 10.5 -12 12 C-10.62657169 12.0689472 -9.24997898 12.08467708 -7.875 12.0625 C-6.59625 12.041875 -5.3175 12.02125 -4 12 C-4 11.34 -4 10.68 -4 10 C-3.34 10 -2.68 10 -2 10 C-1.90912109 9.04287109 -1.90912109 9.04287109 -1.81640625 8.06640625 C-1.73261719 7.24011719 -1.64882813 6.41382813 -1.5625 5.5625 C-1.48128906 4.73878906 -1.40007812 3.91507813 -1.31640625 3.06640625 C-1 1 -1 1 0 0 Z " fill="#C93F64" transform="translate(260,209)"/>
<path d="M0 0 C2.0625 0.4375 2.0625 0.4375 4 1 C3.34 1 2.68 1 2 1 C4.49044991 7.16952365 7.6448433 12.76444714 11.03515625 18.47851562 C12.08150909 20.28662697 13.04810112 22.14042762 14 24 C13.67 24.66 13.34 25.32 13 26 C9.84041006 22.25241462 7.28383147 18.31688105 4.875 14.0625 C4.52824219 13.46759766 4.18148437 12.87269531 3.82421875 12.25976562 C1.73812062 8.60309937 0.19492394 5.03440815 -1 1 C-0.67 0.67 -0.34 0.34 0 0 Z " fill="#CA383D" transform="translate(159,148)"/>
<path d="M0 0 C5.94 0 11.88 0 18 0 C18 0.99 18 1.98 18 3 C11.73 3 5.46 3 -1 3 C-0.67 2.01 -0.34 1.02 0 0 Z " fill="#DB4B6E" transform="translate(119,114)"/>
<path d="M0 0 C3.02138567 -0.08149592 6.04053905 -0.14073421 9.0625 -0.1875 C9.91005859 -0.21263672 10.75761719 -0.23777344 11.63085938 -0.26367188 C18.07275637 -0.33828844 23.04938768 0.30345215 27.99609375 4.82421875 C28.47175781 5.43910156 28.94742188 6.05398437 29.4375 6.6875 C29.93121094 7.31011719 30.42492187 7.93273437 30.93359375 8.57421875 C31.28550781 9.04472656 31.63742188 9.51523438 32 10 C31.01 10 30.02 10 29 10 C28.34 9.01 27.68 8.02 27 7 C25.22666783 5.81608212 25.22666783 5.81608212 23.1875 4.875 C22.52105469 4.54242188 21.85460937 4.20984375 21.16796875 3.8671875 C16.475359 1.9901436 11.69505184 1.76509685 6.6875 1.4375 C5.43324219 1.35371094 4.17898437 1.26992187 2.88671875 1.18359375 C1.45779297 1.09271484 1.45779297 1.09271484 0 1 C0 0.67 0 0.34 0 0 Z " fill="#CB5F61" transform="translate(125,92)"/>
<path d="M0 0 C4.29 0 8.58 0 13 0 C13 0.33 13 0.66 13 1 C10.69 1.33 8.38 1.66 6 2 C5.01879536 5.05263664 5.01879536 6.94736336 6 10 C4.1875 9.875 4.1875 9.875 2 9 C0.1875 6.125 0.1875 6.125 -1 3 C-0.67 2.01 -0.34 1.02 0 0 Z " fill="#F44B78" transform="translate(123,94)"/>
<path d="M0 0 C2.77109307 -0.05392397 5.54113818 -0.09363455 8.3125 -0.125 C9.09818359 -0.14175781 9.88386719 -0.15851563 10.69335938 -0.17578125 C11.45068359 -0.18222656 12.20800781 -0.18867188 12.98828125 -0.1953125 C13.68477783 -0.20578613 14.38127441 -0.21625977 15.09887695 -0.22705078 C17 0 17 0 20 2 C15.91984513 2.90670108 11.91513605 3.14987654 7.75 3.25 C6.71359375 3.27578125 5.6771875 3.3015625 4.609375 3.328125 C3.74828125 3.21984375 2.8871875 3.1115625 2 3 C1.34 2.01 0.68 1.02 0 0 Z " fill="#D99F49" transform="translate(206,146)"/>
<path d="M0 0 C0 0.66 0 1.32 0 2 C-0.99 2.33 -1.98 2.66 -3 3 C-3.33 3.66 -3.66 4.32 -4 5 C-5.84765625 5.6328125 -5.84765625 5.6328125 -8.0625 6.125 C-8.79597656 6.29257813 -9.52945313 6.46015625 -10.28515625 6.6328125 C-10.85105469 6.75398437 -11.41695312 6.87515625 -12 7 C-11.875 4.6875 -11.875 4.6875 -11 2 C-7.05640315 -0.68881604 -4.57522989 -1.48022144 0 0 Z " fill="#F45065" transform="translate(210,202)"/>
<path d="M0 0 C1.32 0.33 2.64 0.66 4 1 C4 1.66 4 2.32 4 3 C4.804375 3.268125 5.60875 3.53625 6.4375 3.8125 C7.283125 4.204375 8.12875 4.59625 9 5 C9.33 5.99 9.66 6.98 10 8 C10.66 8.33 11.32 8.66 12 9 C12 9.99 12 10.98 12 12 C10.66666667 11.33333333 9.33333333 10.66666667 8 10 C7.34 9.731875 6.68 9.46375 6 9.1875 C3.2725251 7.56806178 1.77791254 5.60337193 0 3 C0 2.01 0 1.02 0 0 Z " fill="#F4566B" transform="translate(164,179)"/>
<path d="M0 0 C0 0.66 0 1.32 0 2 C-5.72040011 2.8320582 -11.22240116 3.12036664 -17 3 C-16.67 2.01 -16.34 1.02 -16 0 C-13.7089095 -0.19441368 -11.41709663 -0.38033135 -9.125 -0.5625 C-7.21074219 -0.71912109 -7.21074219 -0.71912109 -5.2578125 -0.87890625 C-2 -1 -2 -1 0 0 Z " fill="#F2C42D" transform="translate(224,105)"/>
<path d="M0 0 C4.23086191 3.88781905 7.61004662 7.39293122 8.25 13.3125 C8.30874682 15.60362592 8.34898911 17.73383694 8 20 C7.34 20.66 6.68 21.32 6 22 C5.85304687 20.71416016 5.85304687 20.71416016 5.703125 19.40234375 C4.81592573 12.61832865 3.79533768 7.69300651 0 2 C0 1.34 0 0.68 0 0 Z " fill="#EDD363" transform="translate(233,110)"/>
<path d="M0 0 C0.99 0 1.98 0 3 0 C3 0.66 3 1.32 3 2 C3.5775 2.103125 4.155 2.20625 4.75 2.3125 C7 3 7 3 8.8125 4.375 C11.70173697 6.52129032 14.66465606 7.65303418 18 9 C17.67 9.66 17.34 10.32 17 11 C10.37400164 9.30102606 3.83023528 5.74535291 0 0 Z " fill="#BE4E5F" transform="translate(165,185)"/>
<path d="M0 0 C-0.99 0.495 -0.99 0.495 -2 1 C-2 1.99 -2 2.98 -2 4 C-4.31 4 -6.62 4 -9 4 C-9.33 2.35 -9.66 0.7 -10 -1 C-6.06329512 -2.31223496 -3.87511856 -1.24296256 0 0 Z " fill="#F26E2F" transform="translate(186,148)"/>
<path d="M0 0 C2.76276177 0.52268466 5.3260876 1.10869587 8 2 C7.21625 2.9075 6.4325 3.815 5.625 4.75 C3.69947504 7.05190236 2.17794259 9.21577207 1 12 C0.03929566 9.11788698 -0.10581883 7.30149956 -0.0625 4.3125 C-0.05347656 3.50425781 -0.04445312 2.69601563 -0.03515625 1.86328125 C-0.02355469 1.24839844 -0.01195312 0.63351563 0 0 Z " fill="#FC5F67" transform="translate(149,147)"/>
<path d="M0 0 C0.66 0.33 1.32 0.66 2 1 C2 1.99 2 2.98 2 4 C-1.27626375 4.9821994 -4.22788119 5.11580914 -7.640625 5.09765625 C-8.71054688 5.09443359 -9.78046875 5.09121094 -10.8828125 5.08789062 C-11.99398437 5.07951172 -13.10515625 5.07113281 -14.25 5.0625 C-15.93996094 5.05573242 -15.93996094 5.05573242 -17.6640625 5.04882812 C-20.44276217 5.03705397 -23.22135409 5.0206084 -26 5 C-26 4.67 -26 4.34 -26 4 C-25.35450195 3.98541748 -24.70900391 3.97083496 -24.04394531 3.95581055 C-21.11203427 3.8812213 -18.18124835 3.7845976 -15.25 3.6875 C-14.23421875 3.66494141 -13.2184375 3.64238281 -12.171875 3.61914062 C-11.1921875 3.58369141 -10.2125 3.54824219 -9.203125 3.51171875 C-7.85202637 3.47244263 -7.85202637 3.47244263 -6.47363281 3.43237305 C-3.5988357 2.92987939 -2.17195002 1.90378068 0 0 Z " fill="#CD945B" transform="translate(240,158)"/>
<path d="M0 0 C0.33 2.97 0.66 5.94 1 9 C0.34 7.68 -0.32 6.36 -1 5 C-2.62078662 1.82990528 -2.62078662 1.82990528 -5.1640625 1.48828125 C-5.97617188 1.43027344 -6.78828125 1.37226563 -7.625 1.3125 C-8.44226563 1.24675781 -9.25953125 1.18101562 -10.1015625 1.11328125 C-10.72804687 1.07589844 -11.35453125 1.03851563 -12 1 C-12 0.34 -12 -0.32 -12 -1 C-7.58980132 -2.47006623 -4.30611969 -1.43537323 0 0 Z " fill="#DA9348" transform="translate(241,148)"/>
<path d="M0 0 C1.828125 0.19140625 1.828125 0.19140625 4 1 C5.484375 3.21484375 5.484375 3.21484375 6.75 5.9375 C7.17796875 6.83339844 7.6059375 7.72929688 8.046875 8.65234375 C9 11 9 11 9 13 C8.01 13 7.02 13 6 13 C5.67 11.02 5.34 9.04 5 7 C4.01 6.67 3.02 6.34 2 6 C0.8125 2.9375 0.8125 2.9375 0 0 Z " fill="#D68355" transform="translate(155,102)"/>
<path d="M0 0 C1.9375 0.75 1.9375 0.75 4 2 C4.75 4.125 4.75 4.125 5 6 C5.66 6 6.32 6 7 6 C9.04169485 8.90548882 10 10.40142046 10 14 C5.7850053 10.14629056 2.75158756 6.01140202 0 1 C0 0.67 0 0.34 0 0 Z " fill="#C96A52" transform="translate(173,158)"/>
<path d="M0 0 C2.99324263 1.0975223 3.84610901 1.67682892 5.25 4.625 C5.4975 5.40875 5.745 6.1925 6 7 C4.02 7.33 2.04 7.66 0 8 C-0.98120464 4.94736336 -0.98120464 3.05263664 0 0 Z " fill="#F2705A" transform="translate(150,98)"/>
<path d="M0 0 C0.33 0 0.66 0 1 0 C1.18175781 1.24716797 1.18175781 1.24716797 1.3671875 2.51953125 C1.61855469 4.14955078 1.61855469 4.14955078 1.875 5.8125 C2.03742188 6.89144531 2.19984375 7.97039062 2.3671875 9.08203125 C2.85132338 12.17321793 2.85132338 12.17321793 5 15 C4.67 15.99 4.34 16.98 4 18 C0.71232131 12.64993984 -1.59683075 8.31631828 -2 2 C-1.34 2 -0.68 2 0 2 C0 1.34 0 0.68 0 0 Z " fill="#C94956" transform="translate(148,148)"/>
<path d="M0 0 C4.56589147 1.44186047 4.56589147 1.44186047 6.3125 3.6875 C7.2650557 6.89155098 7.24595657 9.67958625 7 13 C6.34 13.66 5.68 14.32 5 15 C4.86722656 14.31292969 4.73445312 13.62585938 4.59765625 12.91796875 C4.42105469 12.01691406 4.24445313 11.11585938 4.0625 10.1875 C3.88847656 9.29417969 3.71445313 8.40085938 3.53515625 7.48046875 C3.02258847 4.88602829 3.02258847 4.88602829 2 2 C1.34 2 0.68 2 0 2 C0 1.34 0 0.68 0 0 Z " fill="#C1586A" transform="translate(210,203)"/>
<path d="M0 0 C2.05279359 4.10558718 2.2216942 5.80206685 2.125 10.25 C2.10695312 11.32765625 2.08890625 12.4053125 2.0703125 13.515625 C2.03550781 14.74539062 2.03550781 14.74539062 2 16 C1.01 16 0.02 16 -1 16 C-0.67 10.72 -0.34 5.44 0 0 Z " fill="#E49341" transform="translate(253,148)"/>
<path d="M0 0 C0.99 0.33 1.98 0.66 3 1 C2.6596875 1.8353125 2.6596875 1.8353125 2.3125 2.6875 C1.87566315 5.92009266 3.25074655 7.34113475 5 10 C5 10.66 5 11.32 5 12 C2 11 2 11 0.3125 8.75 C-1.07223533 5.84864978 -1.35178821 4.16609388 -1 1 C-0.67 0.67 -0.34 0.34 0 0 Z " fill="#C3406B" transform="translate(116,115)"/>
<path d="M0 0 C0.66 0.33 1.32 0.66 2 1 C2 2.98 2 4.96 2 7 C-0.82445592 7.94148531 -2.14171618 8.07311695 -5.01171875 7.87890625 C-5.76904297 7.83056641 -6.52636719 7.78222656 -7.30664062 7.73242188 C-8.09232422 7.67634766 -8.87800781 7.62027344 -9.6875 7.5625 C-10.48478516 7.51029297 -11.28207031 7.45808594 -12.10351562 7.40429688 C-14.06936522 7.27480978 -16.03473665 7.13809959 -18 7 C-18 6.67 -18 6.34 -18 6 C-11.73 5.67 -5.46 5.34 1 5 C0.67 3.35 0.34 1.7 0 0 Z " fill="#D15A5B" transform="translate(265,191)"/>
<path d="M0 0 C1.485 0.99 1.485 0.99 3 2 C3 2.66 3 3.32 3 4 C3.53625 4.268125 4.0725 4.53625 4.625 4.8125 C8.8125 6.90625 8.8125 6.90625 13 9 C13 9.66 13 10.32 13 11 C7.78576025 9.63436578 4.79783558 7.70951382 1 4 C0.125 1.6875 0.125 1.6875 0 0 Z " fill="#CD5556" transform="translate(173,174)"/>
<path d="M0 0 C0.66 0.33 1.32 0.66 2 1 C-1.38168431 4.68006822 -4.42521756 6.9785845 -9 9 C-9 8.01 -9 7.02 -9 6 C-8.01 5.67 -7.02 5.34 -6 5 C-4.64631404 3.68733482 -3.31200404 2.35432675 -2 1 C-1.34 0.67 -0.68 0.34 0 0 Z " fill="#FDAC26" transform="translate(234,137)"/>
<path d="M0 0 C0.66 0 1.32 0 2 0 C4 3 4 3 3.875 6.5 C3 10 3 10 1.1875 12 C-1 13 -1 13 -3.25 12.6875 C-3.8275 12.460625 -4.405 12.23375 -5 12 C-4.195625 11.525625 -3.39125 11.05125 -2.5625 10.5625 C-0.15246512 9.23099846 -0.15246512 9.23099846 1 8 C0.8981629 6.08575543 0.8981629 6.08575543 0.5625 3.9375 C0.376875 2.638125 0.19125 1.33875 0 0 Z " fill="#EFCA56" transform="translate(223,121)"/>
<path d="M0 0 C-3 2 -3 2 -7 2 C-7 2.66 -7 3.32 -7 4 C-7.99 4 -8.98 4 -10 4 C-10 3.34 -10 2.68 -10 2 C-10.99 1.67 -11.98 1.34 -13 1 C-8.31506124 -1.48887372 -5.0555786 -0.85687773 0 0 Z " fill="#E18E1A" transform="translate(236,145)"/>
<path d="M0 0 C2.1875 0 2.1875 0 5 1 C7.11779938 3.44189533 8.82502466 5.98422995 10 9 C9.6328125 11.26171875 9.6328125 11.26171875 9 13 C8.67 13 8.34 13 8 13 C7.896875 12.236875 7.79375 11.47375 7.6875 10.6875 C6.93772808 7.75657342 6.16526733 6.98482838 4 5 C3.67 4.01 3.34 3.02 3 2 C2.01 1.34 1.02 0.68 0 0 Z " fill="#C16F68" transform="translate(259,184)"/>
<path d="M0 0 C4.75 0.875 4.75 0.875 7 2 C8.0703125 3.84765625 8.0703125 3.84765625 9.125 6.0625 C9.47820312 6.79597656 9.83140625 7.52945313 10.1953125 8.28515625 C10.46085938 8.85105469 10.72640625 9.41695312 11 10 C10.34 10.66 9.68 11.32 9 12 C8.60167969 11.30132812 8.20335937 10.60265625 7.79296875 9.8828125 C7.26316406 8.97273438 6.73335937 8.06265625 6.1875 7.125 C5.66542969 6.22007813 5.14335937 5.31515625 4.60546875 4.3828125 C3.06266201 1.76726817 3.06266201 1.76726817 0 0 Z " fill="#CB5C56" transform="translate(140,106)"/>
<path d="M0 0 C0.6875 1.8125 0.6875 1.8125 1 4 C-0.654934 6.6284246 -1.98925894 6.99709096 -5 7.8125 C-8 8 -8 8 -11 6 C-9.741875 5.7525 -8.48375 5.505 -7.1875 5.25 C-4.16442273 4.51162006 -3.1940517 4.20617994 -1 1.875 C-0.67 1.25625 -0.34 0.6375 0 0 Z " fill="#CC3461" transform="translate(214,216)"/>
<path d="M0 0 C2.0625 2.25 2.0625 2.25 4 5 C3.75 7.3125 3.75 7.3125 3 9 C1.68 9 0.36 9 -1 9 C-0.67 6.03 -0.34 3.06 0 0 Z " fill="#F45D65" transform="translate(138,118)"/>
<path d="M0 0 C0 0.66 0 1.32 0 2 C-0.66 2 -1.32 2 -2 2 C-2 2.66 -2 3.32 -2 4 C-4.02045442 3.39816251 -6.02111039 2.72693904 -8 2 C-8.33 1.34 -8.66 0.68 -9 0 C-3.375 -1.125 -3.375 -1.125 0 0 Z " fill="#DE6C54" transform="translate(192,172)"/>
<path d="M0 0 C3.81300782 3.2870757 5.22972246 6.39727838 7 11 C6.01 10.67 5.02 10.34 4 10 C3.3125 7.9375 3.3125 7.9375 3 6 C2.34 6 1.68 6 1 6 C0.67 4.02 0.34 2.04 0 0 Z " fill="#D45040" transform="translate(168,147)"/>
<path d="M0 0 C2.91488977 2.6234008 4.88503898 5.71816394 7 9 C6.67 9.66 6.34 10.32 6 11 C5.01 10.34 4.02 9.68 3 9 C3 8.01 3 7.02 3 6 C2.01 5.67 1.02 5.34 0 5 C0 3.35 0 1.7 0 0 Z " fill="#D27650" transform="translate(164,115)"/>
<path d="M0 0 C0.33 0 0.66 0 1 0 C1.61538462 7.26153846 1.61538462 7.26153846 -1.5 11 C-2.325 11.66 -3.15 12.32 -4 13 C-4 12.01 -4 11.02 -4 10 C-3.34 10 -2.68 10 -2 10 C-1.93941406 9.36191406 -1.87882812 8.72382813 -1.81640625 8.06640625 C-1.73261719 7.24011719 -1.64882813 6.41382813 -1.5625 5.5625 C-1.48128906 4.73878906 -1.40007812 3.91507813 -1.31640625 3.06640625 C-1 1 -1 1 0 0 Z " fill="#B4435F" transform="translate(260,209)"/>
<path d="M0 0 C3.29078593 2.79716804 5.06305458 6.19528578 7 10 C6.67 10.66 6.34 11.32 6 12 C0 4.8 0 4.8 0 0 Z " fill="#C34E51" transform="translate(166,162)"/>
<path d="M0 0 C1.48117801 0.28127421 2.95993249 0.57533732 4.4375 0.875 C5.67306641 1.11863281 5.67306641 1.11863281 6.93359375 1.3671875 C7.61550781 1.57601562 8.29742187 1.78484375 9 2 C9.33 2.66 9.66 3.32 10 4 C8.741875 4.04125 7.48375 4.0825 6.1875 4.125 C5.47980469 4.14820313 4.77210938 4.17140625 4.04296875 4.1953125 C2 4 2 4 -1 2 C-0.67 1.34 -0.34 0.68 0 0 Z " fill="#EF5736" transform="translate(159,131)"/>
<path d="M0 0 C0.66 0.66 1.32 1.32 2 2 C1.67 2.66 1.34 3.32 1 4 C1.99 4.33 2.98 4.66 4 5 C2.02 5.33 0.04 5.66 -2 6 C-2.33 4.68 -2.66 3.36 -3 2 C-2.01 1.34 -1.02 0.68 0 0 Z " fill="#F6983C" transform="translate(251,160)"/>
<path d="M0 0 C1.32 0.66 2.64 1.32 4 2 C3.67 2.99 3.34 3.98 3 5 C0.69 4.67 -1.62 4.34 -4 4 C-2.68 2.68 -1.36 1.36 0 0 Z " fill="#E36A51" transform="translate(164,144)"/>
<path d="M0 0 C4.75 0.75 4.75 0.75 7 3 C6.34 3.66 5.68 4.32 5 5 C4.01 5 3.02 5 2 5 C2 4.34 2 3.68 2 3 C1.34 3 0.68 3 0 3 C0 2.01 0 1.02 0 0 Z " fill="#E4841B" transform="translate(238,135)"/>
<path d="M0 0 C1.65 0.33 3.3 0.66 5 1 C5 1.66 5 2.32 5 3 C4.01 3.33 3.02 3.66 2 4 C1.67 4.66 1.34 5.32 1 6 C0.34 5.67 -0.32 5.34 -1 5 C-0.67 3.35 -0.34 1.7 0 0 Z " fill="#E64E5E" transform="translate(205,201)"/>
<path d="M0 0 C2.9375 0.8125 2.9375 0.8125 6 2 C6.33 2.99 6.66 3.98 7 5 C6.34 5 5.68 5 5 5 C4.67 5.66 4.34 6.32 4 7 C3.34 5.68 2.68 4.36 2 3 C1.34 3 0.68 3 0 3 C0 2.01 0 1.02 0 0 Z " fill="#FB6B3D" transform="translate(164,125)"/>
<path d="M0 0 C2.3125 0.125 2.3125 0.125 5 1 C6.8125 4.0625 6.8125 4.0625 8 7 C6.35 6.67 4.7 6.34 3 6 C3 5.01 3 4.02 3 3 C1.56249809 1.31201173 1.56249809 1.31201173 0 0 Z " fill="#E1953E" transform="translate(242,135)"/>
<path d="M0 0 C4.31392226 0.4793247 6.16569547 1.7457985 9 5 C6.03 4.01 3.06 3.02 0 2 C0 1.34 0 0.68 0 0 Z " fill="#EDDB62" transform="translate(224,105)"/>
<path d="M0 0 C0.99 0.33 1.98 0.66 3 1 C2.2884375 1.495 2.2884375 1.495 1.5625 2 C-0.85791615 5.09813267 -0.68198917 8.12026792 -1 12 C-1.33 12 -1.66 12 -2 12 C-2.05422947 10.5629191 -2.09289723 9.12524538 -2.125 7.6875 C-2.14820313 6.88699219 -2.17140625 6.08648437 -2.1953125 5.26171875 C-2 3 -2 3 0 0 Z " fill="#C9485A" transform="translate(241,204)"/>
<path d="M0 0 C-1.423125 0.6496875 -1.423125 0.6496875 -2.875 1.3125 C-6.20041937 2.79302201 -6.20041937 2.79302201 -8 6 C-8.66 6 -9.32 6 -10 6 C-8.84826645 3.53199953 -7.95216435 1.95216435 -6 0 C-2.44444444 -1.22222222 -2.44444444 -1.22222222 0 0 Z " fill="#C15666" transform="translate(205,202)"/>
<path d="M0 0 C1.27875 0.103125 2.5575 0.20625 3.875 0.3125 C4.95394531 0.39951172 4.95394531 0.39951172 6.0546875 0.48828125 C8 1 8 1 10 4 C5.78087253 3.5205537 3.20336822 2.83374881 0 0 Z " fill="#EF586A" transform="translate(247,203)"/>
<path d="M0 0 C2.0625 0.4375 2.0625 0.4375 4 1 C3.01 2.485 3.01 2.485 2 4 C2.99 5.485 2.99 5.485 4 7 C2.0625 6.25 2.0625 6.25 0 5 C-0.8125 2.9375 -0.8125 2.9375 -1 1 C-0.67 0.67 -0.34 0.34 0 0 Z " fill="#F9933F" transform="translate(173,107)"/>
<path d="M0 0 C0.66 0 1.32 0 2 0 C2 2.97 2 5.94 2 9 C1.67 8.01 1.34 7.02 1 6 C0.34 6 -0.32 6 -1 6 C-0.67 4.02 -0.34 2.04 0 0 Z " fill="#D34465" transform="translate(194,208)"/>
<path d="M0 0 C2.12038635 2.61514317 4.13091744 5.19637616 6 8 C4.125 7.6875 4.125 7.6875 2 7 C0 4 0 4 0 0 Z " fill="#CB4352" transform="translate(161,177)"/>
<path d="M0 0 C1.32 0.33 2.64 0.66 4 1 C3 3 3 3 0 5 C-0.66 4.67 -1.32 4.34 -2 4 C-1.34 2.68 -0.68 1.36 0 0 Z " fill="#EF575A" transform="translate(169,173)"/>
<path d="M0 0 C0.66 0.33 1.32 0.66 2 1 C2 1.99 2 2.98 2 4 C-0.31 4.33 -2.62 4.66 -5 5 C-3.35 3.35 -1.7 1.7 0 0 Z " fill="#DB9C57" transform="translate(240,158)"/>
<path d="M0 0 C0.33 0 0.66 0 1 0 C1.3125 2.3125 1.3125 2.3125 1 5 C-1.5 6.8125 -1.5 6.8125 -4 8 C-2.87548273 5.0280615 -1.77706209 2.66559313 0 0 Z " fill="#F18912" transform="translate(237,135)"/>
<path d="M0 0 C0.99 0 1.98 0 3 0 C4.06775224 1.96466413 5.06553465 3.96855359 6 6 C5.67 6.66 5.34 7.32 5 8 C4.16382818 6.8562364 3.33113541 5.70992861 2.5 4.5625 C2.0359375 3.92441406 1.571875 3.28632813 1.09375 2.62890625 C0 1 0 1 0 0 Z " fill="#D6643E" transform="translate(169,126)"/>
</svg>
